<?xml version="1.0" encoding="UTF-8"?>
<svg width="207px" height="326px" viewBox="0 0 207 326" version="1.1" xmlns="http://www.w3.org/2000/svg" xmlns:xlink="http://www.w3.org/1999/xlink">
    <!-- Generator: Sketch 49.3 (51167) - http://www.bohemiancoding.com/sketch -->
    <title>map_withdrawn_no_id copy</title>
    <desc>Created with Sketch.</desc>
    <defs></defs>
    <g id="map_withdrawn_no_id-copy" stroke="none" stroke-width="1" fill="none" fill-rule="evenodd">
        <path d="M101.5,93.4868444 L101.5,131.5" id="Line" stroke="#F4F7FA" stroke-linecap="square" transform="translate(102.000000, 112.000000) rotate(-270.000000) translate(-102.000000, -112.000000) "></path>
        <path d="M135.023241,100.936457 L146.459628,320.060019" id="Line" stroke="#F4F7FA" stroke-linecap="square" transform="translate(140.741435, 210.498238) rotate(-210.000000) translate(-140.741435, -210.498238) "></path>
        <path d="M41.5,20.5 L41.5,100.5" id="Line" stroke="#F4F7FA" stroke-linecap="square"></path>
        <path d="M41.4760206,21.3303996 L121.318868,101.102629 L41.4760206,21.3303996 Z" id="Line" stroke="#F4F7FA" stroke-linecap="square"></path>
        <path d="M81.4922097,205.120034 L81.5421436,317.984937" id="Line" stroke="#F4F7FA" stroke-linecap="square" transform="translate(81.517177, 261.552485) rotate(-45.000000) translate(-81.517177, -261.552485) "></path>
        <path d="M41.5,120.5 L41.5,200.5" id="Line" stroke="#F4F7FA" stroke-linecap="square"></path>
        <path d="M41.5,220.5 L41.5,300.5" id="Line" stroke="#F4F7FA" stroke-linecap="square"></path>
        <rect id="Rectangle-11" fill="#3434CE" x="1" y="1" width="81" height="20" rx="3"></rect>
        <text id="IN-APPLICATION" font-family="Open Sans, sans-serif" font-size="9" font-weight="500" fill="#FCFCFF">
            <tspan x="7.10961914" y="15">IN APPLICATION</tspan>
        </text>
        <rect id="Rectangle-11-Copy" fill="#F4F7FA" x="1" y="101" width="81" height="20" rx="3"></rect>
        <text id="Voting" font-family="Open Sans, sans-serif" font-size="9" font-weight="normal" fill="#424242">
            <tspan x="23.5820312" y="115">VOTING</tspan>
        </text>
        <rect id="Rectangle-11-Copy-2" fill="#F4F7FA" x="1" y="201" width="81" height="20" rx="3"></rect>
        <text id="Reveal" font-family="Open Sans, sans-serif" font-size="9" font-weight="normal" fill="#424242">
            <tspan x="24.8510742" y="215">REVEAL</tspan>
        </text>
        <rect id="Rectangle-11-Copy-3" fill="#F4F7FA" x="1" y="301" width="81" height="20" rx="3"></rect>
        <text id="Rejected" font-family="Open Sans, sans-serif" font-size="9" font-weight="normal" fill="#424242">
            <tspan x="19.1291504" y="315">REJECTED</tspan>
        </text>
        <rect id="Rectangle-11-Copy-5" fill="#F4F7FA" x="121" y="301" width="81" height="20" rx="3"></rect>
        <text id="In-Registry" font-family="Open Sans, sans-serif" font-size="9" font-weight="normal" fill="#424242">
            <tspan x="136.107422" y="315">IN REGISTRY</tspan>
        </text>
        <rect id="Rectangle-11-Copy-4" fill="#9E9E9E" x="121" y="101" width="81" height="20" rx="3"></rect>
        <rect id="Rectangle-11-Copy-6" stroke="#9E9E9E" x="119.5" y="99.5" width="84" height="23" rx="3"></rect>
        <text id="WITHDRAWN" font-family="Open Sans, sans-serif" font-size="9" font-weight="500" fill="#FCFCFF">
            <tspan x="133.69043" y="115">WITHDRAWN</tspan>
        </text>
        <g id="Group" transform="translate(81.720888, 61.504650) rotate(-45.000000) translate(-81.720888, -61.504650) translate(77.220888, 4.004650)" stroke="#424242">
            <path d="M4.45006608,0.635096805 L4.5,113.5" id="Line" stroke-linecap="square"></path>
            <polygon id="Path-4" fill="#FCFCFF" stroke-linecap="round" stroke-linejoin="round" points="8.03197432 110.973432 4.47481702 114.530589 0.937388349 110.993161"></polygon>
        </g>
        <circle id="Oval-2" stroke="#424242" fill="#FCFCFF" cx="41.5" cy="21.5" r="2.5"></circle>
    </g>
</svg>