<?xml version="1.0" encoding="UTF-8"?>
<svg width="207px" height="326px" viewBox="0 0 207 326" version="1.1" xmlns="http://www.w3.org/2000/svg" xmlns:xlink="http://www.w3.org/1999/xlink">
    <!-- Generator: Sketch 49.3 (51167) - http://www.bohemiancoding.com/sketch -->
    <title>map_withdrawn_challenge_id</title>
    <desc>Created with Sketch.</desc>
    <defs></defs>
    <g id="map_withdrawn_challenge_id" stroke="none" stroke-width="1" fill="none" fill-rule="evenodd">
        <path d="M135.023241,100.936457 L146.459628,320.060019" id="Line" stroke="#F4F7FA" stroke-linecap="square" transform="translate(140.741435, 210.498238) rotate(-210.000000) translate(-140.741435, -210.498238) "></path>
        <path d="M41.5,20.5 L41.5,100.5" id="Line" stroke="#F4F7FA" stroke-linecap="square"></path>
        <path d="M41.4760206,21.3303996 L121.318868,101.102629 L41.4760206,21.3303996 Z" id="Line" stroke="#F4F7FA" stroke-linecap="square"></path>
        <path d="M41.5,220.5 L41.5,300.5" id="Line" stroke="#F4F7FA" stroke-linecap="square"></path>
        <rect id="Rectangle-11" fill="#3434CE" x="1" y="1" width="81" height="20" rx="3"></rect>
        <text id="IN-APPLICATION" font-family="Open Sans, sans-serif" font-size="9" font-weight="500" fill="#FCFCFF">
            <tspan x="6.60961914" y="15">IN APPLICATION</tspan>
        </text>
        <rect id="Rectangle-11-Copy" fill="#3434CE" x="1" y="101" width="81" height="20" rx="3"></rect>
        <text id="VOTING" font-family="Open Sans, sans-serif" font-size="9" font-weight="500" fill="#FCFCFF">
            <tspan x="25.125" y="115">VOTING</tspan>
        </text>
        <rect id="Rectangle-11-Copy-2" fill="#3434CE" x="1" y="201" width="81" height="20" rx="3"></rect>
        <text id="REVEAL" font-family="Open Sans, sans-serif" font-size="9" font-weight="500" fill="#FCFCFF">
            <tspan x="25.3874512" y="215">REVEAL</tspan>
        </text>
        <rect id="Rectangle-11-Copy-3" fill="#F4F7FA" x="1" y="301" width="81" height="20" rx="3"></rect>
        <text id="REJECTED" font-family="Open Sans, sans-serif" font-size="9" font-weight="normal" fill="#424242">
            <tspan x="21.1291504" y="315">REJECTED</tspan>
        </text>
        <rect id="Rectangle-11-Copy-5" fill="#9E9E9E" x="121" y="301" width="81" height="20" rx="3"></rect>
        <rect id="Rectangle-11-Copy-6" stroke="#9E9E9E" x="119.5" y="299.5" width="84" height="23" rx="3"></rect>
        <g id="Group-3" transform="translate(38.000000, 218.000000)" stroke="#424242">
            <g id="Group" transform="translate(43.840620, 43.840620) rotate(-45.000000) translate(-43.840620, -43.840620) translate(39.340620, -13.659380)">
                <path d="M4.45006608,0.635096805 L4.5,113.5" id="Line" stroke-linecap="square"></path>
                <polygon id="Path-4" fill="#FCFCFF" stroke-linecap="round" stroke-linejoin="round" points="8.03197432 110.973432 4.47481702 114.530589 0.937388349 110.993161"></polygon>
            </g>
            <circle id="Oval-2" fill="#FCFCFF" cx="3.5" cy="3.5" r="2.5"></circle>
        </g>
        <text id="WITHDRAWN" font-family="Open Sans, sans-serif" font-size="9" font-weight="500" fill="#F4F7FA">
            <tspan x="133.69043" y="315">WITHDRAWN</tspan>
        </text>
        <rect id="Rectangle-11-Copy-4" fill="#F4F7FA" x="121" y="101" width="81" height="20" rx="3"></rect>
        <text id="IN-REGISTRY" font-family="Open Sans, sans-serif" font-size="9" font-weight="normal" fill="#424242">
            <tspan x="136.107422" y="115">IN REGISTRY</tspan>
        </text>
        <path d="M101.5,93.4868444 L101.5,131.5" id="Line" stroke="#F4F7FA" stroke-linecap="square" transform="translate(102.000000, 112.000000) rotate(-270.000000) translate(-102.000000, -112.000000) "></path>
        <g id="Group" transform="translate(37.000000, 19.000000)" stroke="#424242">
            <path d="M4.5,1.5 L4.5,81.5" id="Line" stroke-linecap="square"></path>
            <circle id="Oval-2" fill="#FCFCFF" cx="4.5" cy="2.5" r="2.5"></circle>
            <polygon id="Path-4" fill="#FCFCFF" stroke-linecap="round" stroke-linejoin="round" points="8.03197432 78.9734321 4.47481702 82.5305894 0.937388349 78.9931607"></polygon>
        </g>
        <g id="Group-4" transform="translate(17.000000, 55.000000)">
            <rect id="Rectangle-12" fill="#FFFFFF" x="0" y="0" width="48" height="10"></rect>
            <text id="CHALLENGED" font-family="Open Sans, sans-serif" font-size="7" font-weight="500" fill="#CE3434">
                <tspan x="1.28759766" y="8">CHALLENGED</tspan>
            </text>
        </g>
        <g id="Group-2" transform="translate(37.000000, 119.000000)" stroke="#424242">
            <path d="M4.5,1.5 L4.5,81.5" id="Line" stroke-linecap="square"></path>
            <circle id="Oval-2" fill="#FCFCFF" cx="4.5" cy="2.5" r="2.5"></circle>
            <polygon id="Path-4" fill="#FCFCFF" stroke-linecap="round" stroke-linejoin="round" points="8.03197432 78.9734321 4.47481702 82.5305894 0.937388349 78.9931607"></polygon>
        </g>
    </g>
</svg>