<?xml version="1.0" encoding="UTF-8"?>
<svg width="207px" height="326px" viewBox="0 0 207 326" version="1.1" xmlns="http://www.w3.org/2000/svg" xmlns:xlink="http://www.w3.org/1999/xlink">
    <!-- Generator: Sketch 49.3 (51167) - http://www.bohemiancoding.com/sketch -->
    <title>map_in_registry_no_id</title>
    <desc>Created with Sketch.</desc>
    <defs></defs>
    <g id="map_in_registry_no_id" stroke="none" stroke-width="1" fill="none" fill-rule="evenodd">
        <g id="Group-2" transform="translate(1.000000, 1.000000)">
            <path d="M100.5,92.4868444 L100.5,130.5" id="Line" stroke="#F4F7FA" stroke-linecap="square" transform="translate(101.000000, 111.000000) rotate(-270.000000) translate(-101.000000, -111.000000) "></path>
            <path d="M134.023241,99.9364567 L145.459628,319.060019" id="Line" stroke="#F4F7FA" stroke-linecap="square" transform="translate(139.741435, 209.498238) rotate(-210.000000) translate(-139.741435, -209.498238) "></path>
            <path d="M40.5,19.5 L40.5,99.5" id="Line" stroke="#F4F7FA" stroke-linecap="square"></path>
            <path d="M40.4760206,20.3303996 L120.318868,100.102629 L40.4760206,20.3303996 Z" id="Line" stroke="#F4F7FA" stroke-linecap="square"></path>
            <path d="M80.4922097,204.120034 L80.5421436,316.984937" id="Line" stroke="#F4F7FA" stroke-linecap="square" transform="translate(80.517177, 260.552485) rotate(-45.000000) translate(-80.517177, -260.552485) "></path>
            <path d="M40.5,119.5 L40.5,199.5" id="Line" stroke="#F4F7FA" stroke-linecap="square"></path>
            <path d="M40.5,219.5 L40.5,299.5" id="Line" stroke="#F4F7FA" stroke-linecap="square"></path>
            <rect id="Rectangle-11" fill="#3434CE" x="0" y="0" width="81" height="20" rx="3"></rect>
            <text id="In-Application" font-family="OpenSans-SemiBold, Open Sans" font-size="9" font-weight="500" fill="#FCFCFF">
                <tspan x="6.10961914" y="14">IN APPLICATION</tspan>
            </text>
            <rect id="Rectangle-11-Copy" fill="#F4F7FA" x="0" y="100" width="81" height="20" rx="3"></rect>
            <text id="Voting" font-family="OpenSans-Regular, Open Sans" font-size="9" font-weight="normal" fill="#424242">
                <tspan x="22.5820312" y="114">VOTING</tspan>
            </text>
            <rect id="Rectangle-11-Copy-2" fill="#F4F7FA" x="0" y="200" width="81" height="20" rx="3"></rect>
            <text id="Reveal" font-family="OpenSans-Regular, Open Sans" font-size="9" font-weight="normal" fill="#424242">
                <tspan x="23.8510742" y="214">REVEAL</tspan>
            </text>
            <rect id="Rectangle-11-Copy-3" fill="#F4F7FA" x="0" y="300" width="81" height="20" rx="3"></rect>
            <text id="Rejected" font-family="OpenSans-Regular, Open Sans" font-size="9" font-weight="normal" fill="#424242">
                <tspan x="18.1291504" y="314">REJECTED</tspan>
            </text>
            <rect id="Rectangle-11-Copy-5" fill="#F4F7FA" x="120" y="300" width="81" height="20" rx="3"></rect>
            <text id="In-Registry" font-family="OpenSans-Regular, Open Sans" font-size="9" font-weight="normal" fill="#424242">
                <tspan x="135.107422" y="314">IN REGISTRY</tspan>
            </text>
            <rect id="Rectangle-11-Copy-4" fill="#10C903" x="120" y="100" width="81" height="20" rx="3"></rect>
            <rect id="Rectangle-11-Copy-6" stroke="#10C903" x="118.5" y="98.5" width="84" height="23" rx="3"></rect>
            <text id="In-Registry" font-family="OpenSans-SemiBold, Open Sans" font-size="9" font-weight="500" fill="#FCFCFF">
                <tspan x="134.344971" y="114">IN REGISTRY</tspan>
            </text>
            <g id="Group" transform="translate(80.720888, 60.504650) rotate(-45.000000) translate(-80.720888, -60.504650) translate(76.220888, 3.004650)" stroke="#424242">
                <path d="M4.45006608,0.635096805 L4.5,113.5" id="Line" stroke-linecap="square"></path>
                <polygon id="Path-4" fill="#FCFCFF" stroke-linecap="round" stroke-linejoin="round" points="8.03197432 110.973432 4.47481702 114.530589 0.937388349 110.993161"></polygon>
            </g>
            <g id="Group-4-Copy" transform="translate(51.000000, 54.000000)">
                <rect id="Rectangle-12" fill="#FFFFFF" x="0" y="0" width="60" height="10"></rect>
                <text id="UNCHALLENGED" font-family="OpenSans-SemiBold, Open Sans" font-size="7" font-weight="500" fill="#10C903">
                    <tspan x="0.948730469" y="8">UNCHALLENGED</tspan>
                </text>
            </g>
            <circle id="Oval-2" stroke="#424242" fill="#FCFCFF" cx="40.5" cy="20.5" r="2.5"></circle>
        </g>
    </g>
</svg>