<?xml version="1.0" encoding="UTF-8"?>
<svg width="95%" height="95%" viewBox="0 0 207 326" version="1.1" xmlns="http://www.w3.org/2000/svg" xmlns:xlink="http://www.w3.org/1999/xlink">
    <!-- Generator: Sketch 49.3 (51167) - http://www.bohemiancoding.com/sketch -->
    <title>map_registry_challenge_id_registry</title>
    <desc>Created with Sketch.</desc>
    <defs></defs>
    <g id="map_registry_challenge_id_registry" stroke="none" stroke-width="1" fill="none" fill-rule="evenodd">
        <g id="Group-4" transform="translate(1.000000, 1.000000)">
            <path d="M40.5,19.5 L40.5,99.5" id="Line" stroke="#F4F7FA" stroke-linecap="square"></path>
            <path d="M40.4760206,20.3303996 L120.318868,100.102629 L40.4760206,20.3303996 Z" id="Line" stroke="#F4F7FA" stroke-linecap="square"></path>
            <path d="M40.5,219.5 L40.5,299.5" id="Line" stroke="#F4F7FA" stroke-linecap="square"></path>
            <rect id="Rectangle-11" fill="#F4F7FA" x="0" y="0" width="81" height="20" rx="3"></rect>
            <text id="IN-APPLICATION" font-family="Open Sans, sans-serif" font-size="9" font-weight="normal" fill="#424242">
                <tspan x="7.3137207" y="14">IN APPLICATION</tspan>
            </text>
            <rect id="Rectangle-11-Copy" fill="#3434CE" x="0" y="100" width="81" height="20" rx="3"></rect>
            <text id="VOTING" font-family="Open Sans, sans-serif" font-size="9" font-weight="500" fill="#FCFCFF">
                <tspan x="24.125" y="114">VOTING</tspan>
            </text>
            <rect id="Rectangle-11-Copy-3" fill="#F4F7FA" x="0" y="300" width="81" height="20" rx="3"></rect>
            <text id="REJECTED" font-family="Open Sans, sans-serif" font-size="9" font-weight="normal" fill="#424242">
                <tspan x="20.1291504" y="314">REJECTED</tspan>
            </text>
            <rect id="Rectangle-11-Copy-5" fill="#10C903" x="120" y="300" width="81" height="20" rx="3"></rect>
            <rect id="Rectangle-11-Copy-6" stroke="#10C903" x="118.5" y="298.5" width="84" height="23" rx="3"></rect>
            <text id="IN-REGISTRY" font-family="Open Sans, sans-serif" font-size="9" font-weight="500" fill="#F4F7FA">
                <tspan x="134.344971" y="314">IN REGISTRY</tspan>
            </text>
            <rect id="Rectangle-11-Copy-4" fill="#F4F7FA" x="120" y="100" width="81" height="20" rx="3"></rect>
            <text id="IN-REGISTRY" font-family="Open Sans, sans-serif" font-size="9" font-weight="normal" fill="#424242">
                <tspan x="135.107422" y="114">IN REGISTRY</tspan>
            </text>
            <path d="M100.5,92.4868444 L100.5,130.5" id="Line" stroke="#F4F7FA" stroke-linecap="square" transform="translate(101.000000, 111.000000) rotate(-270.000000) translate(-101.000000, -111.000000) "></path>
            <rect id="Rectangle-11-Copy-2" fill="#3434CE" x="0" y="200" width="81" height="20" rx="3"></rect>
            <text id="REVEAL" font-family="Open Sans, sans-serif" font-size="9" font-weight="500" fill="#FCFCFF">
                <tspan x="24.3874512" y="214">REVEAL</tspan>
            </text>
            <g id="Group-2" transform="translate(37.000000, 118.000000)" stroke="#424242">
                <path d="M3.5,2.5 L3.5,82.5" id="Line" stroke-linecap="square"></path>
                <circle id="Oval-2" fill="#FCFCFF" cx="3.5" cy="2.5" r="2.5"></circle>
                <polygon id="Path-4" fill="#FCFCFF" stroke-linecap="round" stroke-linejoin="round" points="7 79 3.4902672 83 0 79.0221847"></polygon>
            </g>
            <g id="Group-3" transform="translate(37.000000, 217.000000)" stroke="#424242">
                <g id="Group" transform="translate(43.840620, 43.840620) rotate(-45.000000) translate(-43.840620, -43.840620) translate(39.340620, -13.659380)">
                    <path d="M4.45006608,0.635096805 L4.5,113.5" id="Line" stroke-linecap="square"></path>
                    <polygon id="Path-4" fill="#FCFCFF" stroke-linecap="round" stroke-linejoin="round" points="8.03197432 110.973432 4.47481702 114.530589 0.937388349 110.993161"></polygon>
                </g>
                <circle id="Oval-2" fill="#FCFCFF" cx="3.5" cy="3.5" r="2.5"></circle>
            </g>
            <g id="Group-4-Copy" transform="translate(52.000000, 255.000000)">
                <rect id="Rectangle-12" fill="#FFFFFF" x="0" y="0" width="60" height="10"></rect>
                <text id="SUPPORTED" font-family="Open Sans, sans-serif" font-size="7" font-weight="500" fill="#10C903">
                    <tspan x="8.67675781" y="8">SUPPORTED</tspan>
                </text>
            </g>
        </g>
    </g>
</svg>