<?xml version="1.0" encoding="UTF-8"?>
<svg width="300px" height="400px" viewBox="0 0 231 354" version="1.1" xmlns="http://www.w3.org/2000/svg" xmlns:xlink="http://www.w3.org/1999/xlink">
    <!-- Generator: Sketch 48.2 (47327) - http://www.bohemiancoding.com/sketch -->
    <title>map_registry_no_id_registry</title>
    <desc>Created with Sketch.</desc>
    <defs></defs>
    <g id="Stage-Maps" stroke="none" stroke-width="1" fill="none" fill-rule="evenodd">
        <g id="map_registry_no_id_registry">
            <path d="M152.023241,115.936457 L163.459628,335.060019" id="Line" stroke="#F4F7FA" stroke-linecap="square" transform="translate(157.741435, 225.498238) rotate(-210.000000) translate(-157.741435, -225.498238) "></path>
            <rect id="Rectangle-11-Copy-5" fill="#10C903" x="138" y="316" width="81" height="20" rx="3"></rect>
            <rect id="Rectangle-11-Copy-6" stroke="#10C903" x="136.5" y="314.5" width="84" height="23" rx="3"></rect>
            <text id="IN-REGISTRY" font-family="Open Sans, sans-serif" font-size="9" font-weight="500" fill="#F4F7FA">
                <tspan x="152.344971" y="330">IN REGISTRY</tspan>
            </text>
            <path d="M58.5,35.5 L58.5,115.5" id="Line" stroke="#F4F7FA" stroke-linecap="square"></path>
            <rect id="Rectangle-11" fill="#F4F7FA" x="18" y="16" width="81" height="20" rx="3"></rect>
            <text id="IN-APPLICATION" font-family="Open Sans, sans-serif" font-size="9" font-weight="normal" fill="#424242">
                <tspan x="25.3137207" y="30">IN APPLICATION</tspan>
            </text>
            <path d="M58.4760206,36.3303996 L138.318868,116.102629 L58.4760206,36.3303996 Z" id="Line" stroke="#F4F7FA" stroke-linecap="square"></path>
            <path d="M58.5,235.5 L58.5,315.5" id="Line" stroke="#F4F7FA" stroke-linecap="square"></path>
            <rect id="Rectangle-11-Copy" fill="#3434CE" x="18" y="116" width="81" height="20" rx="3"></rect>
            <text id="Voting" font-family="Open Sans, sans-serif" font-size="9" font-weight="500" fill="#FCFCFF">
                <tspan x="45.1594238" y="130">Voting</tspan>
            </text>
            <rect id="Rectangle-11-Copy-3" fill="#F4F7FA" x="18" y="316" width="81" height="20" rx="3"></rect>
            <text id="Rejected" font-family="Open Sans, sans-serif" font-size="9" font-weight="normal" fill="#424242">
                <tspan x="38.5175781" y="330">Rejected</tspan>
            </text>
            <rect id="Rectangle-11-Copy-2" fill="#3434CE" x="18" y="216" width="81" height="20" rx="3"></rect>
            <text id="REVEAL" font-family="Open Sans, sans-serif" font-size="9" font-weight="500" fill="#FCFCFF">
                <tspan x="42.3874512" y="230">REVEAL</tspan>
            </text>
            <rect id="Rectangle-11-Copy-4" fill="#10C903" x="138" y="116" width="81" height="20" rx="3"></rect>
            <text id="In-Registry" font-family="Open Sans, sans-serif" font-size="9" font-weight="500" fill="#FCFCFF">
                <tspan x="156.062744" y="130">In Registry</tspan>
            </text>
            <g id="Group-4" transform="translate(96.000000, 137.000000)">
                <rect id="Rectangle-12" fill="#FFFFFF" x="0" y="0" width="48" height="10"></rect>
                <text id="CHALLENGED" font-family="Open Sans, sans-serif" font-size="7" font-weight="500" fill="#CE3434">
                    <tspan x="1.28759766" y="8">CHALLENGED</tspan>
                </text>
            </g>
            <g id="Group-2" transform="translate(55.000000, 134.000000)" stroke="#424242">
                <path d="M3.5,2.5 L3.5,82.5" id="Line" stroke-linecap="square"></path>
                <circle id="Oval-2" fill="#FCFCFF" cx="3.5" cy="2.5" r="2.5"></circle>
                <polygon id="Path-4" fill="#FCFCFF" stroke-linecap="round" stroke-linejoin="round" points="7 79 3.4902672 83 0 79.0221847"></polygon>
            </g>
            <g id="Group" transform="translate(119.500000, 126.500000) rotate(-270.000000) translate(-119.500000, -126.500000) translate(115.000000, 105.000000)" stroke="#424242">
                <path d="M4.5,3.48684438 L4.5,41.5" id="Line" stroke-linecap="square"></path>
                <circle id="Oval-2" fill="#FCFCFF" cx="4.5" cy="2.5" r="2.5"></circle>
                <polygon id="Path-4" fill="#FCFCFF" stroke-linecap="round" stroke-linejoin="round" points="8.03197432 38.9734321 4.47481702 42.5305894 0.937388349 38.9931607"></polygon>
            </g>
            <g id="Group-3" transform="translate(55.000000, 233.000000)" stroke="#424242">
                <g id="Group" transform="translate(43.840620, 43.840620) rotate(-45.000000) translate(-43.840620, -43.840620) translate(39.340620, -13.659380)">
                    <path d="M4.45006608,0.635096805 L4.5,113.5" id="Line" stroke-linecap="square"></path>
                    <polygon id="Path-4" fill="#FCFCFF" stroke-linecap="round" stroke-linejoin="round" points="8.03197432 110.973432 4.47481702 114.530589 0.937388349 110.993161"></polygon>
                </g>
                <circle id="Oval-2" fill="#FCFCFF" cx="3.5" cy="3.5" r="2.5"></circle>
            </g>
            <g id="Group-4-Copy" transform="translate(70.000000, 271.000000)">
                <rect id="Rectangle-12" fill="#FFFFFF" x="0" y="0" width="60" height="10"></rect>
                <text id="SUPPORTED" font-family="Open Sans, sans-serif" font-size="7" font-weight="500" fill="#10C903">
                    <tspan x="8.67675781" y="8">SUPPORTED</tspan>
                </text>
            </g>
        </g>
    </g>
</svg>