<?xml version="1.0" encoding="UTF-8"?>
<svg width="18px" height="20px" viewBox="0 0 18 20" version="1.1" xmlns="http://www.w3.org/2000/svg" xmlns:xlink="http://www.w3.org/1999/xlink">
    <!-- Generator: Sketch 50.2 (55047) - http://www.bohemiancoding.com/sketch -->
    <title>ADTOKEN</title>
    <desc>Created with Sketch.</desc>
    <defs></defs>
    <g id="ADTOKEN" stroke="none" stroke-width="1" fill="none" fill-rule="evenodd" stroke-linecap="round" stroke-linejoin="round">
        <g transform="translate(0.000000, 1.000000)" stroke="#424242">
            <path d="M10,0.667350269 L15.7162863,3.96764973 C16.3350885,4.32491532 16.7162863,4.98516936 16.7162863,5.69970054 L16.7162863,12.3002995 C16.7162863,13.0148306 16.3350885,13.6750847 15.7162863,14.0323503 L10,17.3326497 C9.38119785,17.6899153 8.61880215,17.6899153 8,17.3326497 L2.28371365,14.0323503 C1.6649115,13.6750847 1.28371365,13.0148306 1.28371365,12.3002995 L1.28371365,5.69970054 C1.28371365,4.98516936 1.6649115,4.32491532 2.28371365,3.96764973 L8,0.667350269 C8.61880215,0.310084679 9.38119785,0.310084679 10,0.667350269 Z" id="Polygon"></path>
            <path d="M7.02,11.2202143 L11.2202143,7.02" id="Line"></path>
            <path d="M11.2202143,11.2202143 L7.02,7.02" id="Line"></path>
            <path d="M10,3.63735027 L13.1441909,5.45264973 C13.7629931,5.80991532 14.1441909,6.47016936 14.1441909,7.18470054 L14.1441909,10.8152995 C14.1441909,11.5298306 13.7629931,12.1900847 13.1441909,12.5473503 L10,14.3626497 C9.38119785,14.7199153 8.61880215,14.7199153 8,14.3626497 L4.8558091,12.5473503 C4.23700695,12.1900847 3.8558091,11.5298306 3.8558091,10.8152995 L3.8558091,7.18470054 C3.8558091,6.47016936 4.23700695,5.80991532 4.8558091,5.45264973 L8,3.63735027 C8.61880215,3.28008468 9.38119785,3.28008468 10,3.63735027 Z" id="Polygon"></path>
        </g>
    </g>
</svg>