<?xml version="1.0" encoding="UTF-8"?>
<svg width="18px" height="20px" viewBox="0 0 18 20" version="1.1" xmlns="http://www.w3.org/2000/svg" xmlns:xlink="http://www.w3.org/1999/xlink">
    <!-- Generator: Sketch 50.2 (55047) - http://www.bohemiancoding.com/sketch -->
    <title>PARAMETERS</title>
    <desc>Created with Sketch.</desc>
    <defs></defs>
    <g id="PARAMETERS" stroke="none" stroke-width="1" fill="none" fill-rule="evenodd">
        <g transform="translate(1.000000, 1.000000)" stroke="#424242">
            <circle id="Oval" cx="1.35" cy="4.95" r="1.35"></circle>
            <circle id="Oval" cx="8.1" cy="1.35" r="1.35"></circle>
            <circle id="Oval-Copy" cx="8.1" cy="9.45" r="1.35"></circle>
            <path d="M6.74095701,8.21887133 L2.84364337,5.83764909" id="Line" stroke-linecap="round"></path>
            <path d="M13.400894,12.2880306 L9.72433231,10.0416858" id="Line" stroke-linecap="round"></path>
            <path d="M13.5900305,5.76876298 L9.21981174,8.40579839" id="Line" stroke-linecap="round"></path>
            <path d="M6.60484815,10.0112625 L2.91643428,12.2514465" id="Line" stroke-linecap="round"></path>
            <path d="M9.47487646,16.0332618 L13.4393105,13.8719612" id="Line" stroke-linecap="round"></path>
            <path d="M9.68227499,2.11015695 L13.4723841,4.02981595" id="Line" stroke-linecap="round"></path>
            <path d="M15.0177485,11.6395991 L15.0177485,6.42704831" id="Line" stroke-linecap="round"></path>
            <path d="M6.85214356,1.98426097 L2.83629339,4.16781437" id="Line-2" stroke-linecap="round"></path>
            <path d="M6.60295154,15.9662155 L2.75292622,13.8504737" id="Line-2" stroke-linecap="round"></path>
            <circle id="Oval" cx="1.35" cy="13.05" r="1.35"></circle>
            <circle id="Oval" cx="14.85" cy="4.95" r="1.35"></circle>
            <circle id="Oval" cx="14.85" cy="13.05" r="1.35"></circle>
            <circle id="Oval" cx="8.1" cy="16.65" r="1.35"></circle>
            <path d="M1.41816818,11.5989167 L1.41816818,6.44854527" id="Line" stroke-linecap="round"></path>
            <path d="M8.1,15.3642366 L8.1,10.9404856" id="Line" stroke-linecap="round"></path>
            <path d="M8.1,7.91010749 L8.1,2.97979098" id="Line" stroke-linecap="round"></path>
        </g>
    </g>
</svg>