<?xml version="1.0" encoding="UTF-8"?>
<svg width="18px" height="18px" viewBox="0 0 18 18" version="1.1" xmlns="http://www.w3.org/2000/svg" xmlns:xlink="http://www.w3.org/1999/xlink">
    <!-- Generator: Sketch 50.2 (55047) - http://www.bohemiancoding.com/sketch -->
    <title>DOMAINS</title>
    <desc>Created with Sketch.</desc>
    <defs></defs>
    <g id="DOMAINS" stroke="none" stroke-width="1" fill="none" fill-rule="evenodd">
        <g id="WWW" stroke="#424242">
            <circle id="Oval" cx="9" cy="9" r="9"></circle>
            <g id="Group-2" transform="translate(2.124033, 7.434115)" stroke-linecap="round">
                <g id="Group">
                    <path d="M0.406065113,0.54142015 L1.21819534,2.70710075" id="Line"></path>
                    <path d="M2.04260852,0.549764789 L1.20591238,2.69875611" id="Line"></path>
                    <path d="M2.03032556,0.54142015 L2.84245579,2.70710075" id="Line"></path>
                    <path d="M3.66686897,0.549764789 L2.83017283,2.69875611" id="Line"></path>
                </g>
                <g id="Group" transform="translate(4.872781, 0.000000)">
                    <path d="M0.406065113,0.54142015 L1.21819534,2.70710075" id="Line"></path>
                    <path d="M2.04260852,0.549764789 L1.20591238,2.69875611" id="Line"></path>
                    <path d="M2.03032556,0.54142015 L2.84245579,2.70710075" id="Line"></path>
                    <path d="M3.66686897,0.549764789 L2.83017283,2.69875611" id="Line"></path>
                </g>
                <g id="Group-Copy" transform="translate(9.745563, 0.000000)">
                    <path d="M0.406065113,0.54142015 L1.21819534,2.70710075" id="Line"></path>
                    <path d="M2.04260852,0.549764789 L1.20591238,2.69875611" id="Line"></path>
                    <path d="M2.03032556,0.54142015 L2.84245579,2.70710075" id="Line"></path>
                    <path d="M3.66686897,0.549764789 L2.83017283,2.69875611" id="Line"></path>
                </g>
            </g>
            <path d="M3.5,12.5 L14.5,12.5" id="Line-3" stroke-linecap="round"></path>
        </g>
    </g>
</svg>