<?xml version="1.0" encoding="utf-8"?>
<!-- Generator: Adobe Illustrator 22.0.1, SVG Export Plug-In . SVG Version: 6.00 Build 0)  -->
<svg version="1.1" id="Layer_1" xmlns="http://www.w3.org/2000/svg" xmlns:xlink="http://www.w3.org/1999/xlink" x="0px" y="0px"
	 viewBox="0 0 394 118" style="enable-background:new 0 0 394 118;" xml:space="preserve">
<style type="text/css">
	.st0{fill:#FFFFFF;}
	.st1{fill:url(#SVGID_1_);}
	.st2{fill:url(#SVGID_2_);}
	.st3{fill:url(#SVGID_3_);}
	.st4{fill:url(#SVGID_4_);}
	.st5{fill:url(#SVGID_5_);}
	.st6{fill:url(#SVGID_6_);}
	.st7{fill:url(#SVGID_7_);}
	.st8{fill:url(#SVGID_8_);}
	.st9{fill:url(#SVGID_9_);}
	.st10{fill:url(#SVGID_10_);}
	.st11{fill:url(#SVGID_11_);}
	.st12{fill:url(#SVGID_12_);}
	.st13{fill:url(#SVGID_13_);}
	.st14{fill:url(#SVGID_14_);}
	.st15{fill:url(#SVGID_15_);}
	.st16{fill:url(#SVGID_16_);}
	.st17{fill:url(#SVGID_17_);}
	.st18{fill:url(#SVGID_18_);}
	.st19{fill:url(#SVGID_19_);}
	.st20{fill:url(#SVGID_20_);}
	.st21{fill:url(#SVGID_21_);}
	.st22{fill:url(#SVGID_22_);}
	.st23{fill:url(#SVGID_23_);}
	.st24{fill:url(#SVGID_24_);}
	.st25{fill:url(#SVGID_25_);}
	.st26{fill:url(#SVGID_26_);}
	.st27{fill:url(#SVGID_27_);}
	.st28{fill:url(#SVGID_28_);}
	.st29{fill:url(#SVGID_29_);}
	.st30{fill:url(#SVGID_30_);}
	.st31{fill:url(#SVGID_31_);}
	.st32{fill:url(#SVGID_32_);}
</style>
<g>
	<g>
		<path d="M126.5,55.9c0-13.2,9.9-23,22.9-23c9.6,0,16.7,5.2,20.1,13.1h-9.2c-2.4-3.2-6.3-5.4-10.9-5.4c-8.2,0-14.3,6.6-14.3,15.4
			c0,8.8,6.1,15.4,14.3,15.4c6.5,0,10.7-3.8,12.2-9.4H147v-8h23.8c0,15.3-9,24.9-21.4,24.9C136.4,78.9,126.5,69.1,126.5,55.9z"/>
		<path d="M208.4,61.9c0,9.4-7.3,16.4-16.9,16.4c-9.6,0-16.9-7-16.9-16.4c0-9.4,7.3-16.4,16.9-16.4
			C201.1,45.5,208.4,52.5,208.4,61.9z M182.9,61.9c0,5.2,3.7,8.8,8.6,8.8c4.9,0,8.6-3.6,8.6-8.8c0-5.2-3.7-8.8-8.6-8.8
			C186.6,53.1,182.9,56.7,182.9,61.9z"/>
		<path d="M232.4,77h-7.8l-14.3-31h9.1l9.3,20l9.3-20h8.7L232.4,77z"/>
		<path d="M280.6,68c-2.4,6.3-8.6,10.3-15.3,10.3c-9.7,0-16.8-7-16.8-16.4c0-9.3,6.9-16.4,16.5-16.4c9.6,0,16.2,7.1,16.2,16.2
			c0,1,0,1.8-0.1,3.3h-24c0.9,3.3,4.2,5.7,8.2,5.7c2.6,0,5-0.8,6.4-2.7H280.6z M272.4,58c-0.5-3.6-3.6-5.9-7.4-5.9
			c-3.7,0-7.2,2.4-7.7,5.9H272.4z"/>
		<path d="M296,46v3.5c1.4-2.1,4.7-3.5,8.2-3.5h3.8v8h-3.9c-5.3,0-8.1,3.5-8.1,8.5V77h-8V46H296z"/>
		<path d="M345,58.3V77h-8V59.8c0-4.4-2.5-7.1-7.3-7.1c-4.1,0-7.7,3.2-7.7,8.6V77h-8V46h8v2.4c1.7-1.9,5.2-3.2,9.3-3.2
			C339.4,45.2,345,50.1,345,58.3z"/>
		<path d="M366.8,55.6L351.5,34h9.8l10.4,14.8L382.3,34h9.5l-15.3,21.4L391.7,77H382l-10.6-14.8L360.8,77h-9.3L366.8,55.6z"/>
	</g>
</g>
<linearGradient id="SVGID_1_" gradientUnits="userSpaceOnUse" x1="247.3835" y1="-446.7668" x2="223.5159" y2="-446.7668" gradientTransform="matrix(1 0 0 -1 -196 -360)">
	<stop  offset="0" style="stop-color:#DC6E6D"/>
	<stop  offset="1" style="stop-color:#C44533"/>
</linearGradient>
<polygon class="st1" points="51.7,86.8 39.6,96.6 27.4,100.8 25.5,86.8 27.4,72.7 "/>
<linearGradient id="SVGID_2_" gradientUnits="userSpaceOnUse" x1="247.4734" y1="-460.7897" x2="272.4341" y2="-460.7897" gradientTransform="matrix(1 0 0 -1 -196 -360)">
	<stop  offset="0" style="stop-color:#903069"/>
	<stop  offset="1" style="stop-color:#B84F92"/>
</linearGradient>
<polygon class="st2" points="76,100.8 51.7,114.8 49.8,102 51.7,86.8 65.6,92.4 "/>
<linearGradient id="SVGID_3_" gradientUnits="userSpaceOnUse" x1="284.2152" y1="-425.8456" x2="269.2574" y2="-406.4473" gradientTransform="matrix(1 0 0 -1 -196 -360)">
	<stop  offset="0" style="stop-color:#245396"/>
	<stop  offset="1" style="stop-color:#62A3D9"/>
</linearGradient>
<polygon class="st3" points="100.3,58.7 88.1,67.6 76,72.7 74.1,56.7 76,44.7 "/>
<linearGradient id="SVGID_4_" gradientUnits="userSpaceOnUse" x1="270.7229" y1="-459.8629" x2="284.0447" y2="-439.8802" gradientTransform="matrix(1 0 0 -1 -196 -360)">
	<stop  offset="0" style="stop-color:#2F1B61"/>
	<stop  offset="1" style="stop-color:#58499C"/>
</linearGradient>
<polygon class="st4" points="100.3,86.8 76,100.8 74.1,88 76,72.7 88.1,77.9 "/>
<linearGradient id="SVGID_5_" gradientUnits="userSpaceOnUse" x1="247.9213" y1="-460.7897" x2="224.064" y2="-460.7897" gradientTransform="matrix(1 0 0 -1 -196 -360)">
	<stop  offset="0" style="stop-color:#CC296E"/>
	<stop  offset="1" style="stop-color:#9B1A4E"/>
</linearGradient>
<polygon class="st5" points="27.7,100.8 52,86.8 52,114.8 "/>
<linearGradient id="SVGID_6_" gradientUnits="userSpaceOnUse" x1="273.1609" y1="-431.1998" x2="259.8391" y2="-411.6846" gradientTransform="matrix(1 0 0 -1 -196 -360)">
	<stop  offset="0" style="stop-color:#3B9BCB"/>
	<stop  offset="1" style="stop-color:#65C0E5"/>
</linearGradient>
<polygon class="st6" points="51.7,58.7 76,44.7 76,72.7 "/>
<linearGradient id="SVGID_7_" gradientUnits="userSpaceOnUse" x1="259.8496" y1="-453.786" x2="275.2748" y2="-435.5562" gradientTransform="matrix(1 0 0 -1 -196 -360)">
	<stop  offset="0" style="stop-color:#431451"/>
	<stop  offset="1" style="stop-color:#854299"/>
</linearGradient>
<polygon class="st7" points="51.7,86.8 76,72.7 76,100.8 "/>
<linearGradient id="SVGID_8_" gradientUnits="userSpaceOnUse" x1="283.4007" y1="-440.3732" x2="298.2026" y2="-420.2737" gradientTransform="matrix(1 0 0 -1 -196 -360)">
	<stop  offset="0" style="stop-color:#4A60A5"/>
	<stop  offset="1" style="stop-color:#7088C4"/>
</linearGradient>
<polygon class="st8" points="75.7,72.7 100,58.7 100,86.8 "/>
<linearGradient id="SVGID_9_" gradientUnits="userSpaceOnUse" x1="211.071" y1="-439.6341" x2="198.5672" y2="-418.9503" gradientTransform="matrix(1 0 0 -1 -196 -360)">
	<stop  offset="0" style="stop-color:#FFD252"/>
	<stop  offset="1" style="stop-color:#E3A71E"/>
</linearGradient>
<polygon class="st9" points="27.3,72.7 15.1,81.6 3,86.8 3,58.7 15.1,63.9 "/>
<linearGradient id="SVGID_10_" gradientUnits="userSpaceOnUse" x1="197.7896" y1="-417.335" x2="211.3451" y2="-397.3912" gradientTransform="matrix(1 0 0 -1 -196 -360)">
	<stop  offset="0" style="stop-color:#86DB7C"/>
	<stop  offset="1" style="stop-color:#60C969"/>
</linearGradient>
<polygon class="st10" points="27.3,44.7 14.2,54.1 3,58.7 3,30.7 16,36.3 "/>
<linearGradient id="SVGID_11_" gradientUnits="userSpaceOnUse" x1="222.1303" y1="-403.6206" x2="235.5689" y2="-383.6379" gradientTransform="matrix(1 0 0 -1 -196 -360)">
	<stop  offset="0" style="stop-color:#5AD6C1"/>
	<stop  offset="1" style="stop-color:#10B39D"/>
</linearGradient>
<polygon class="st11" points="51.7,30.7 27.4,44.7 25.5,30.7 27.4,16.7 39.6,22.2 "/>
<linearGradient id="SVGID_12_" gradientUnits="userSpaceOnUse" x1="223.1967" y1="-432.5129" x2="210.9266" y2="-411.8291" gradientTransform="matrix(1 0 0 -1 -196 -360)">
	<stop  offset="0" style="stop-color:#A9D158"/>
	<stop  offset="1" style="stop-color:#71AD33"/>
	<stop  offset="1" style="stop-color:#71B033"/>
</linearGradient>
<polygon class="st12" points="2.7,58.7 27,44.7 27,72.7 "/>
<linearGradient id="SVGID_13_" gradientUnits="userSpaceOnUse" x1="210.6793" y1="-397.9597" x2="223.8842" y2="-377.5096" gradientTransform="matrix(1 0 0 -1 -196 -360)">
	<stop  offset="0" style="stop-color:#5BDEA1"/>
	<stop  offset="1" style="stop-color:#44BD76"/>
</linearGradient>
<polygon class="st13" points="2.7,30.7 27,16.7 27,44.7 "/>
<linearGradient id="SVGID_14_" gradientUnits="userSpaceOnUse" x1="246.208" y1="-389.9135" x2="259.8804" y2="-369.5803" gradientTransform="matrix(1 0 0 -1 -196 -360)">
	<stop  offset="0" style="stop-color:#55A6D6"/>
	<stop  offset="1" style="stop-color:#027CB5"/>
</linearGradient>
<polygon class="st14" points="76,16.7 51.7,30.7 49.8,17.3 51.7,2.6 "/>
<linearGradient id="SVGID_15_" gradientUnits="userSpaceOnUse" x1="222.6943" y1="-460.7491" x2="211.0085" y2="-440.0264" gradientTransform="matrix(1 0 0 -1 -196 -360)">
	<stop  offset="0" style="stop-color:#FAAF69"/>
	<stop  offset="1" style="stop-color:#D68547"/>
</linearGradient>
<polygon class="st15" points="2.7,86.8 27,72.7 27,100.8 "/>
<linearGradient id="SVGID_16_" gradientUnits="userSpaceOnUse" x1="235.8673" y1="-383.6438" x2="248.1371" y2="-362.6099" gradientTransform="matrix(1 0 0 -1 -196 -360)">
	<stop  offset="0" style="stop-color:#38B7C2"/>
	<stop  offset="1" style="stop-color:#0F8A96"/>
</linearGradient>
<polygon class="st16" points="27.7,16.7 52,2.6 52,30.7 "/>
</svg>
