<?xml version="1.0" encoding="utf-8"?>
<!-- Generator: Adobe Illustrator 22.0.1, SVG Export Plug-In . SVG Version: 6.00 Build 0)  -->
<svg version="1.1" id="Layer_1" xmlns="http://www.w3.org/2000/svg" xmlns:xlink="http://www.w3.org/1999/xlink" x="0px" y="0px"
	 viewBox="0 0 729 282.9" style="enable-background:new 0 0 729 282.9;" xml:space="preserve">
<style type="text/css">
	.st0{fill:#212121;}
	.st1{fill:#1E4DA7;}
	.st2{fill:url(#SVGID_1_);}
	.st3{fill:url(#SVGID_2_);}
	.st4{fill:url(#SVGID_3_);}
	.st5{fill:url(#SVGID_4_);}
	.st6{fill:url(#SVGID_5_);}
	.st7{fill:url(#SVGID_6_);}
	.st8{fill:url(#SVGID_7_);}
	.st9{fill:url(#SVGID_8_);}
	.st10{fill:url(#SVGID_9_);}
	.st11{fill:url(#SVGID_10_);}
	.st12{fill:url(#SVGID_11_);}
	.st13{fill:url(#SVGID_12_);}
	.st14{fill:url(#SVGID_13_);}
	.st15{fill:url(#SVGID_14_);}
	.st16{fill:url(#SVGID_15_);}
	.st17{fill:url(#SVGID_16_);}
	.st18{fill:url(#SVGID_17_);}
	.st19{fill:url(#SVGID_18_);}
	.st20{fill:url(#SVGID_19_);}
	.st21{fill:url(#SVGID_20_);}
	.st22{fill:url(#SVGID_21_);}
	.st23{fill:url(#SVGID_22_);}
	.st24{fill:url(#SVGID_23_);}
	.st25{fill:url(#SVGID_24_);}
	.st26{fill:url(#SVGID_25_);}
	.st27{fill:url(#SVGID_26_);}
	.st28{fill:url(#SVGID_27_);}
	.st29{fill:url(#SVGID_28_);}
	.st30{fill:url(#SVGID_29_);}
	.st31{fill:url(#SVGID_30_);}
	.st32{fill:url(#SVGID_31_);}
	.st33{fill:url(#SVGID_32_);}
	.st34{fill:#FAFAFA;}
	.st35{fill:url(#SVGID_33_);}
	.st36{fill:url(#SVGID_34_);}
	.st37{fill:url(#SVGID_35_);}
	.st38{fill:url(#SVGID_36_);}
	.st39{fill:url(#SVGID_37_);}
	.st40{fill:url(#SVGID_38_);}
	.st41{fill:url(#SVGID_39_);}
	.st42{fill:url(#SVGID_40_);}
	.st43{fill:url(#SVGID_41_);}
	.st44{fill:url(#SVGID_42_);}
	.st45{fill:url(#SVGID_43_);}
	.st46{fill:url(#SVGID_44_);}
	.st47{fill:url(#SVGID_45_);}
	.st48{fill:url(#SVGID_46_);}
	.st49{fill:url(#SVGID_47_);}
	.st50{fill:url(#SVGID_48_);}
	.st51{fill:url(#SVGID_49_);}
	.st52{fill:url(#SVGID_50_);}
	.st53{fill:url(#SVGID_51_);}
	.st54{fill:url(#SVGID_52_);}
	.st55{fill:url(#SVGID_53_);}
	.st56{fill:url(#SVGID_54_);}
	.st57{fill:url(#SVGID_55_);}
	.st58{fill:url(#SVGID_56_);}
	.st59{fill:url(#SVGID_57_);}
	.st60{fill:url(#SVGID_58_);}
	.st61{fill:url(#SVGID_59_);}
	.st62{fill:url(#SVGID_60_);}
	.st63{fill:url(#SVGID_61_);}
	.st64{fill:url(#SVGID_62_);}
	.st65{fill:url(#SVGID_63_);}
	.st66{fill:url(#SVGID_64_);}
	.st67{fill:url(#SVGID_65_);}
	.st68{fill:url(#SVGID_66_);}
	.st69{fill:url(#SVGID_67_);}
	.st70{fill:url(#SVGID_68_);}
	.st71{fill:url(#SVGID_69_);}
	.st72{fill:url(#SVGID_70_);}
	.st73{fill:url(#SVGID_71_);}
	.st74{fill:url(#SVGID_72_);}
	.st75{fill:url(#SVGID_73_);}
	.st76{fill:url(#SVGID_74_);}
	.st77{fill:url(#SVGID_75_);}
	.st78{fill:url(#SVGID_76_);}
	.st79{fill:url(#SVGID_77_);}
	.st80{fill:url(#SVGID_78_);}
	.st81{fill:url(#SVGID_79_);}
	.st82{fill:url(#SVGID_80_);}
	.st83{fill:url(#SVGID_81_);}
	.st84{fill:url(#SVGID_82_);}
	.st85{fill:url(#SVGID_83_);}
	.st86{fill:url(#SVGID_84_);}
	.st87{fill:url(#SVGID_85_);}
	.st88{fill:url(#SVGID_86_);}
	.st89{fill:url(#SVGID_87_);}
	.st90{fill:url(#SVGID_88_);}
	.st91{fill:url(#SVGID_89_);}
	.st92{fill:url(#SVGID_90_);}
	.st93{fill:url(#SVGID_91_);}
	.st94{fill:url(#SVGID_92_);}
	.st95{fill:url(#SVGID_93_);}
	.st96{fill:url(#SVGID_94_);}
	.st97{fill:url(#SVGID_95_);}
	.st98{fill:url(#SVGID_96_);}
</style>
<path id="chain_1_" class="st34" d="M440.8,159.8c-1.6,8.5-7.3,13.4-16.3,13.4c-12.2,0-19.9-9.4-19.9-24c0-13.8,7.7-23.2,19.9-23.2
	c10.2,0,15.9,5.3,17.5,15.9h8.5v-22.8H442v8.9c-2.4-6.5-9.8-10.6-19.1-10.6c-17.9,0-29.7,12.6-29.7,31.7c0,19.5,12.2,32.1,30.9,32.1
	c15.5,0,25.2-8.1,26.8-21.5C451,159.8,440.8,159.8,440.8,159.8z M478.6,93.1h-22v8.1h11V172h-11v8.1H490V172h-11.4v-26.4
	c0-11.8,6.9-19.1,17.9-19.1c9.4,0,13.4,4.5,13.4,14.6v31.3h-11v8.1h32.9v-8.1h-11v-35.8c0-11.4-8.1-18.3-22-18.3
	c-11,0-17.9,4.1-20.7,11.4L478.6,93.1L478.6,93.1z M551.8,137c0.8-6.9,5.7-10.6,15.5-10.6c4.9,0,8.9,1.2,11.4,3.3
	c2.8,2.4,3.7,4.9,3.7,11.4v2.4c-6.9-0.4-9.8-0.4-11.4-0.4c-10.6,0-17.5,0.8-21.6,2.8c-7.3,3.3-11,8.9-11,17.1
	c0,11.8,8.1,18.3,22.4,18.3c12.2,0,19.1-4.5,22.8-14.2v12.6h20.7v-8.1h-11v-30.9c0-9.4-1.2-13.4-4.9-17.1c-4.1-4.1-11-6.1-20.7-6.1
	c-16.7,0-25.2,6.1-26.8,19.1L551.8,137L551.8,137z M582.7,151.6c-0.8,8.1-1.6,11.8-4.5,15c-3.3,4.5-8.9,6.9-15.9,6.9
	c-7.7,0-12.6-4.1-12.6-10.6c0-3.7,1.6-6.5,4.5-8.5c3.3-2,8.1-3.3,17.5-3.3C576.2,151.2,578.6,151.2,582.7,151.6L582.7,151.6z
	 M629,119.5h-22v8.1h11V172h-11v8.1h31.7V172H629L629,119.5L629,119.5z M616.9,93.1v11.8H629V93.1C629,93.1,616.9,93.1,616.9,93.1z
	 M664.8,119.5h-21.5v8.1h11.4V172h-11.4v8.1h32.9V172h-11v-26.4c0-11.8,6.5-19.1,17.1-19.1c9.4,0,14.2,4.9,14.2,14.2V172H686v8.1
	h32.1V172h-10.6v-35c0-12.2-7.7-19.1-22-19.1c-11,0-18.7,4.9-21.1,13.4v-11.8C664.4,119.5,664.8,119.5,664.8,119.5z"/>
<path id="ad_1_" class="st34" d="M20.8,137c0.8-6.9,5.7-10.6,15.5-10.6c4.9,0,8.9,1.2,11.4,3.3c2.8,2.4,3.7,4.9,3.7,11.4v2.4
	c-6.9-0.4-9.8-0.4-11.4-0.4c-10.6,0-17.5,0.8-21.5,2.8c-7.3,3.3-11,8.9-11,17.1c0,11.8,8.1,18.3,22.4,18.3
	c12.2,0,19.1-4.5,22.8-14.2v12.6h20.7v-8.1h-11v-30.9c0-9.4-1.2-13.4-4.9-17.1c-4.1-4.1-11-6.1-20.7-6.1c-16.7,0-25.2,6.1-26.8,19.1
	L20.8,137L20.8,137z M51.7,151.6c-0.8,8.1-1.6,11.8-4.5,15c-3.3,4.5-8.9,6.9-15.9,6.9c-7.7,0-12.6-4.1-12.6-10.6
	c0-3.7,1.6-6.5,4.5-8.5c3.3-2,8.1-3.3,17.5-3.3C45.2,151.2,47.6,151.2,51.7,151.6L51.7,151.6z M129.7,130.5
	c-3.3-7.7-11.4-12.6-22.4-12.6c-17.9,0-28.9,12.2-28.9,32.1s11,31.7,29.7,31.7c11,0,19.9-5.7,22.4-13.8v12.2h21.5V172h-11V93.1
	h-22.4v8.1h11.4L129.7,130.5L129.7,130.5z M109.8,126.4c12.6,0,20.3,8.9,20.3,24c0,13.8-8.1,23.2-20.3,23.2
	c-12.6,0-20.3-8.9-20.3-24C89.5,135.4,97.6,126.4,109.8,126.4L109.8,126.4z"/>
<g>
	
		<rect x="345.7" y="248.8" transform="matrix(0.7071 -0.7071 0.7071 0.7071 -78.3783 326.2249)" class="st1" width="17.9" height="17.9"/>
	<g>
		
			<linearGradient id="SVGID_1_" gradientUnits="userSpaceOnUse" x1="1425.1498" y1="-877.5792" x2="1366.415" y2="-817.726" gradientTransform="matrix(0.7071 -0.7071 0.7071 0.7071 -52.3344 1800.2231)">
			<stop  offset="0" style="stop-color:#4EE7D6"/>
			<stop  offset="1" style="stop-color:#1649AB"/>
		</linearGradient>
		<polygon class="st2" points="335.5,251.7 348.1,238.6 335.5,226 322.9,238.6 		"/>
		
			<linearGradient id="SVGID_2_" gradientUnits="userSpaceOnUse" x1="1411.926" y1="-890.5553" x2="1353.1918" y2="-830.7021" gradientTransform="matrix(0.7071 -0.7071 0.7071 0.7071 -52.3344 1800.2231)">
			<stop  offset="0" style="stop-color:#4EE7D6"/>
			<stop  offset="1" style="stop-color:#1649AB"/>
		</linearGradient>
		<polygon class="st3" points="316.8,232.5 329.4,219.9 316.8,207.3 304.2,219.9 		"/>
		
			<linearGradient id="SVGID_3_" gradientUnits="userSpaceOnUse" x1="1398.4155" y1="-903.8137" x2="1339.6809" y2="-843.9604" gradientTransform="matrix(0.7071 -0.7071 0.7071 0.7071 -52.3344 1800.2231)">
			<stop  offset="0" style="stop-color:#4EE7D6"/>
			<stop  offset="1" style="stop-color:#1649AB"/>
		</linearGradient>
		<polygon class="st4" points="297.7,213.4 310.3,200.8 297.7,188.2 285.1,200.8 		"/>
		
			<linearGradient id="SVGID_4_" gradientUnits="userSpaceOnUse" x1="1384.6553" y1="-917.3162" x2="1325.921" y2="-857.463" gradientTransform="matrix(0.7071 -0.7071 0.7071 0.7071 -52.3344 1800.2231)">
			<stop  offset="0" style="stop-color:#4EE7D6"/>
			<stop  offset="1" style="stop-color:#1649AB"/>
		</linearGradient>
		<polygon class="st5" points="278.6,231.3 291.2,218.7 278.6,206.1 266,218.7 		"/>
		
			<linearGradient id="SVGID_5_" gradientUnits="userSpaceOnUse" x1="1344.0383" y1="-957.1744" x2="1285.3037" y2="-897.3211" gradientTransform="matrix(0.7071 -0.7071 0.7071 0.7071 -52.3344 1800.2231)">
			<stop  offset="0" style="stop-color:#4EE7D6"/>
			<stop  offset="1" style="stop-color:#1649AB"/>
		</linearGradient>
		<polygon class="st6" points="222,251.7 234.6,238.6 222,226 209,238.6 		"/>
		
			<linearGradient id="SVGID_6_" gradientUnits="userSpaceOnUse" x1="1357.6583" y1="-943.8085" x2="1298.9241" y2="-883.9553" gradientTransform="matrix(0.7071 -0.7071 0.7071 0.7071 -52.3344 1800.2231)">
			<stop  offset="0" style="stop-color:#4EE7D6"/>
			<stop  offset="1" style="stop-color:#1649AB"/>
		</linearGradient>
		<polygon class="st7" points="240.7,232.5 253.3,219.9 240.7,207.3 228.1,219.9 		"/>
		
			<linearGradient id="SVGID_7_" gradientUnits="userSpaceOnUse" x1="1371.4268" y1="-930.298" x2="1312.6924" y2="-870.4447" gradientTransform="matrix(0.7071 -0.7071 0.7071 0.7071 -52.3344 1800.2231)">
			<stop  offset="0" style="stop-color:#4EE7D6"/>
			<stop  offset="1" style="stop-color:#1649AB"/>
		</linearGradient>
		<polygon class="st8" points="259.9,188.2 247.2,200.8 259.9,213.4 272.5,200.8 		"/>
		
			<linearGradient id="SVGID_8_" gradientUnits="userSpaceOnUse" x1="1384.9021" y1="-917.0747" x2="1326.1674" y2="-857.2214" gradientTransform="matrix(0.7071 -0.7071 0.7071 0.7071 -52.3344 1800.2231)">
			<stop  offset="0" style="stop-color:#4EE7D6"/>
			<stop  offset="1" style="stop-color:#1649AB"/>
		</linearGradient>
		<polygon class="st9" points="266,182.1 278.6,194.7 291.2,182.1 278.6,169.1 		"/>
	</g>
	
		<rect x="383.4" y="248.8" transform="matrix(0.7071 -0.7071 0.7071 0.7071 -67.3447 352.9459)" class="st1" width="17.9" height="17.9"/>
	
		<rect x="364.8" y="229.5" transform="matrix(0.7071 -0.7071 0.7071 0.7071 -59.1785 334.1035)" class="st1" width="17.9" height="17.9"/>
	
		<rect x="345.7" y="211" transform="matrix(0.7071 -0.7071 0.7071 0.7071 -51.6573 315.1912)" class="st1" width="17.9" height="17.9"/>
	
		<rect x="383.5" y="211" transform="matrix(0.7071 -0.7071 0.7071 0.7071 -40.6237 341.9123)" class="st1" width="17.9" height="17.9"/>
	<g>
		
			<linearGradient id="SVGID_9_" gradientUnits="userSpaceOnUse" x1="1386.123" y1="-878.3484" x2="1445.9762" y2="-815.1387" gradientTransform="matrix(0.7071 -0.7071 0.7071 0.7071 -52.3344 1800.2231)">
			<stop  offset="0" style="stop-color:#F7BD44"/>
			<stop  offset="1" style="stop-color:#1649AB"/>
		</linearGradient>
		<polygon class="st10" points="373.3,213.4 386.3,200.8 373.3,188.2 360.7,200.8 		"/>
		
			<linearGradient id="SVGID_10_" gradientUnits="userSpaceOnUse" x1="1399.4768" y1="-890.9927" x2="1459.3301" y2="-827.783" gradientTransform="matrix(0.7071 -0.7071 0.7071 0.7071 -52.3344 1800.2231)">
			<stop  offset="0" style="stop-color:#F7BD44"/>
			<stop  offset="1" style="stop-color:#1649AB"/>
		</linearGradient>
		<polygon class="st11" points="354.6,194.7 367.2,182.1 354.6,169.1 342,182.1 		"/>
		
			<linearGradient id="SVGID_11_" gradientUnits="userSpaceOnUse" x1="1412.8223" y1="-903.6295" x2="1472.6755" y2="-840.4202" gradientTransform="matrix(0.7071 -0.7071 0.7071 0.7071 -52.3344 1800.2231)">
			<stop  offset="0" style="stop-color:#F7BD44"/>
			<stop  offset="1" style="stop-color:#1649AB"/>
		</linearGradient>
		<polygon class="st12" points="335.5,175.6 348.1,163 335.5,150.4 322.9,163 		"/>
		
			<linearGradient id="SVGID_12_" gradientUnits="userSpaceOnUse" x1="1427.0477" y1="-917.0999" x2="1486.901" y2="-853.8906" gradientTransform="matrix(0.7071 -0.7071 0.7071 0.7071 -52.3344 1800.2231)">
			<stop  offset="0" style="stop-color:#F7BD44"/>
			<stop  offset="1" style="stop-color:#1649AB"/>
		</linearGradient>
		<polygon class="st13" points="353.4,156.5 366,143.9 353.4,131.3 340.8,143.9 		"/>
		
			<linearGradient id="SVGID_13_" gradientUnits="userSpaceOnUse" x1="1426.3232" y1="-916.4141" x2="1486.1765" y2="-853.2043" gradientTransform="matrix(0.7071 -0.7071 0.7071 0.7071 -52.3344 1800.2231)">
			<stop  offset="0" style="stop-color:#F7BD44"/>
			<stop  offset="1" style="stop-color:#1649AB"/>
		</linearGradient>
		<polygon class="st14" points="316.8,156.5 329.4,143.9 316.8,131.3 304.2,143.9 		"/>
		
			<linearGradient id="SVGID_14_" gradientUnits="userSpaceOnUse" x1="1440.27" y1="-929.6199" x2="1500.1233" y2="-866.4102" gradientTransform="matrix(0.7071 -0.7071 0.7071 0.7071 -52.3344 1800.2231)">
			<stop  offset="0" style="stop-color:#F7BD44"/>
			<stop  offset="1" style="stop-color:#1649AB"/>
		</linearGradient>
		<polygon class="st15" points="335.5,137.8 348.1,125.2 335.5,112.6 322.9,125.2 		"/>
		
			<linearGradient id="SVGID_15_" gradientUnits="userSpaceOnUse" x1="1454.5195" y1="-943.1132" x2="1514.3727" y2="-879.9038" gradientTransform="matrix(0.7071 -0.7071 0.7071 0.7071 -52.3344 1800.2231)">
			<stop  offset="0" style="stop-color:#F7BD44"/>
			<stop  offset="1" style="stop-color:#1649AB"/>
		</linearGradient>
		<polygon class="st16" points="354.6,118.7 367.2,106.1 354.6,93.5 342,106.1 		"/>
		
			<linearGradient id="SVGID_16_" gradientUnits="userSpaceOnUse" x1="1468.6136" y1="-956.4588" x2="1528.4669" y2="-893.2495" gradientTransform="matrix(0.7071 -0.7071 0.7071 0.7071 -52.3344 1800.2231)">
			<stop  offset="0" style="stop-color:#F7BD44"/>
			<stop  offset="1" style="stop-color:#1649AB"/>
		</linearGradient>
		<polygon class="st17" points="360.7,87 373.3,100 386.3,87 373.3,74.4 		"/>
	</g>
	
		<rect x="156.2" y="248.7" transform="matrix(0.7071 -0.7071 0.7071 0.7071 -133.8355 192.2617)" class="st1" width="17.9" height="17.9"/>
	
		<rect x="194" y="248.8" transform="matrix(0.7071 -0.7071 0.7071 0.7071 -122.8016 218.9827)" class="st1" width="17.9" height="17.9"/>
	
		<rect x="174.8" y="229.7" transform="matrix(0.7071 -0.7071 0.7071 0.7071 -114.9231 199.7832)" class="st1" width="17.9" height="17.9"/>
	
		<rect x="156.3" y="211" transform="matrix(0.7071 -0.7071 0.7071 0.7071 -107.1143 181.2277)" class="st1" width="17.9" height="17.9"/>
	
		<rect x="194" y="211" transform="matrix(0.7071 -0.7071 0.7071 0.7071 -96.0806 207.949)" class="st1" width="17.9" height="17.9"/>
	<g>
		
			<linearGradient id="SVGID_17_" gradientUnits="userSpaceOnUse" x1="1343.7056" y1="-919.4238" x2="1281.0553" y2="-980.3956" gradientTransform="matrix(0.7071 -0.7071 0.7071 0.7071 -52.3344 1800.2231)">
			<stop  offset="0" style="stop-color:#D775DE"/>
			<stop  offset="1" style="stop-color:#1649AB"/>
		</linearGradient>
		<polygon class="st18" points="183.8,213.4 196.4,200.8 183.8,188.2 171.2,200.8 		"/>
		
			<linearGradient id="SVGID_18_" gradientUnits="userSpaceOnUse" x1="1356.7103" y1="-932.7859" x2="1294.0601" y2="-993.7581" gradientTransform="matrix(0.7071 -0.7071 0.7071 0.7071 -52.3344 1800.2231)">
			<stop  offset="0" style="stop-color:#D775DE"/>
			<stop  offset="1" style="stop-color:#1649AB"/>
		</linearGradient>
		<polygon class="st19" points="202.9,194.7 215.5,182.1 202.9,169.1 190.3,182.1 		"/>
		
			<linearGradient id="SVGID_19_" gradientUnits="userSpaceOnUse" x1="1369.7146" y1="-946.1489" x2="1307.0643" y2="-1007.1207" gradientTransform="matrix(0.7071 -0.7071 0.7071 0.7071 -52.3344 1800.2231)">
			<stop  offset="0" style="stop-color:#D775DE"/>
			<stop  offset="1" style="stop-color:#1649AB"/>
		</linearGradient>
		<polygon class="st20" points="222,175.6 234.6,163 222,150.4 209,163 		"/>
		
			<linearGradient id="SVGID_20_" gradientUnits="userSpaceOnUse" x1="1382.865" y1="-959.6608" x2="1320.2147" y2="-1020.6326" gradientTransform="matrix(0.7071 -0.7071 0.7071 0.7071 -52.3344 1800.2231)">
			<stop  offset="0" style="stop-color:#D775DE"/>
			<stop  offset="1" style="stop-color:#1649AB"/>
		</linearGradient>
		<polygon class="st21" points="240.7,156.5 253.3,143.9 240.7,131.3 228.1,143.9 		"/>
		
			<linearGradient id="SVGID_21_" gradientUnits="userSpaceOnUse" x1="1383.2228" y1="-960.0287" x2="1320.573" y2="-1021.0005" gradientTransform="matrix(0.7071 -0.7071 0.7071 0.7071 -52.3344 1800.2231)">
			<stop  offset="0" style="stop-color:#D775DE"/>
			<stop  offset="1" style="stop-color:#1649AB"/>
		</linearGradient>
		<polygon class="st22" points="202.9,156.5 215.5,143.9 202.9,131.3 190.3,143.9 		"/>
		
			<linearGradient id="SVGID_22_" gradientUnits="userSpaceOnUse" x1="1396.0857" y1="-973.2457" x2="1333.4354" y2="-1034.2175" gradientTransform="matrix(0.7071 -0.7071 0.7071 0.7071 -52.3344 1800.2231)">
			<stop  offset="0" style="stop-color:#D775DE"/>
			<stop  offset="1" style="stop-color:#1649AB"/>
		</linearGradient>
		<polygon class="st23" points="222,137.8 234.6,125.2 222,112.6 209,125.2 		"/>
		
			<linearGradient id="SVGID_23_" gradientUnits="userSpaceOnUse" x1="1409.594" y1="-987.1257" x2="1346.9437" y2="-1048.0975" gradientTransform="matrix(0.7071 -0.7071 0.7071 0.7071 -52.3344 1800.2231)">
			<stop  offset="0" style="stop-color:#D775DE"/>
			<stop  offset="1" style="stop-color:#1649AB"/>
		</linearGradient>
		<polygon class="st24" points="202.9,118.7 215.5,106.1 202.9,93.5 190.3,106.1 		"/>
		
			<linearGradient id="SVGID_24_" gradientUnits="userSpaceOnUse" x1="1422.9603" y1="-1000.8599" x2="1360.3104" y2="-1061.8318" gradientTransform="matrix(0.7071 -0.7071 0.7071 0.7071 -52.3344 1800.2231)">
			<stop  offset="0" style="stop-color:#D775DE"/>
			<stop  offset="1" style="stop-color:#1649AB"/>
		</linearGradient>
		<polygon class="st25" points="171.2,87 183.8,100 196.4,87 183.8,74.4 		"/>
	</g>
	
		<rect x="156.3" y="59.3" transform="matrix(0.7071 -0.7071 0.7071 0.7071 0.128 136.8047)" class="st1" width="17.9" height="17.9"/>
	
		<rect x="194" y="59.3" transform="matrix(0.7071 -0.7071 0.7071 0.7071 11.1613 163.5259)" class="st1" width="17.9" height="17.9"/>
	
		<rect x="174.8" y="40.2" transform="matrix(0.7071 -0.7071 0.7071 0.7071 19.04 144.326)" class="st1" width="17.9" height="17.9"/>
	
		<rect x="156.3" y="21.5" transform="matrix(0.7071 -0.7071 0.7071 0.7071 26.8489 125.7708)" class="st1" width="17.9" height="17.9"/>
	<g>
		
			<linearGradient id="SVGID_25_" gradientUnits="userSpaceOnUse" x1="1410.8188" y1="-969.6865" x2="1475.1472" y2="-1032.8958" gradientTransform="matrix(0.7071 -0.7071 0.7071 0.7071 -52.3344 1800.2231)">
			<stop  offset="0" style="stop-color:#DA6699"/>
			<stop  offset="0.1442" style="stop-color:#D66599"/>
			<stop  offset="0.2874" style="stop-color:#CA649A"/>
			<stop  offset="0.4303" style="stop-color:#B6619C"/>
			<stop  offset="0.573" style="stop-color:#9A5D9F"/>
			<stop  offset="0.7156" style="stop-color:#7657A2"/>
			<stop  offset="0.8578" style="stop-color:#4A51A6"/>
			<stop  offset="0.9979" style="stop-color:#1749AB"/>
			<stop  offset="1" style="stop-color:#1649AB"/>
		</linearGradient>
		<polygon class="st26" points="259.9,100 272.5,87 259.9,74.4 247.2,87 		"/>
		
			<linearGradient id="SVGID_26_" gradientUnits="userSpaceOnUse" x1="1397.3103" y1="-983.434" x2="1461.6387" y2="-1046.6438" gradientTransform="matrix(0.7071 -0.7071 0.7071 0.7071 -52.3344 1800.2231)">
			<stop  offset="0" style="stop-color:#DA6699"/>
			<stop  offset="0.1442" style="stop-color:#D66599"/>
			<stop  offset="0.2874" style="stop-color:#CA649A"/>
			<stop  offset="0.4303" style="stop-color:#B6619C"/>
			<stop  offset="0.573" style="stop-color:#9A5D9F"/>
			<stop  offset="0.7156" style="stop-color:#7657A2"/>
			<stop  offset="0.8578" style="stop-color:#4A51A6"/>
			<stop  offset="0.9979" style="stop-color:#1749AB"/>
			<stop  offset="1" style="stop-color:#1649AB"/>
		</linearGradient>
		<polygon class="st27" points="240.7,80.9 253.3,68.3 240.7,55.7 228.1,68.3 		"/>
		
			<linearGradient id="SVGID_27_" gradientUnits="userSpaceOnUse" x1="1383.9417" y1="-997.0394" x2="1448.2699" y2="-1060.2488" gradientTransform="matrix(0.7071 -0.7071 0.7071 0.7071 -52.3344 1800.2231)">
			<stop  offset="0" style="stop-color:#DA6699"/>
			<stop  offset="0.1442" style="stop-color:#D66599"/>
			<stop  offset="0.2874" style="stop-color:#CA649A"/>
			<stop  offset="0.4303" style="stop-color:#B6619C"/>
			<stop  offset="0.573" style="stop-color:#9A5D9F"/>
			<stop  offset="0.7156" style="stop-color:#7657A2"/>
			<stop  offset="0.8578" style="stop-color:#4A51A6"/>
			<stop  offset="0.9979" style="stop-color:#1749AB"/>
			<stop  offset="1" style="stop-color:#1649AB"/>
		</linearGradient>
		<polygon class="st28" points="222,61.8 234.6,49.2 222,36.6 209,49.2 		"/>
		
			<linearGradient id="SVGID_28_" gradientUnits="userSpaceOnUse" x1="1424.045" y1="-956.2261" x2="1488.3733" y2="-1019.4359" gradientTransform="matrix(0.7071 -0.7071 0.7071 0.7071 -52.3344 1800.2231)">
			<stop  offset="0" style="stop-color:#DA6699"/>
			<stop  offset="0.1442" style="stop-color:#D66599"/>
			<stop  offset="0.2874" style="stop-color:#CA649A"/>
			<stop  offset="0.4303" style="stop-color:#B6619C"/>
			<stop  offset="0.573" style="stop-color:#9A5D9F"/>
			<stop  offset="0.7156" style="stop-color:#7657A2"/>
			<stop  offset="0.8578" style="stop-color:#4A51A6"/>
			<stop  offset="0.9979" style="stop-color:#1749AB"/>
			<stop  offset="1" style="stop-color:#1649AB"/>
		</linearGradient>
		<polygon class="st29" points="278.6,118.7 291.2,106.1 278.6,93.5 266,106.1 		"/>
		
			<linearGradient id="SVGID_29_" gradientUnits="userSpaceOnUse" x1="1423.8199" y1="-956.4551" x2="1488.1483" y2="-1019.6645" gradientTransform="matrix(0.7071 -0.7071 0.7071 0.7071 -52.3344 1800.2231)">
			<stop  offset="0" style="stop-color:#DA6699"/>
			<stop  offset="0.1442" style="stop-color:#D66599"/>
			<stop  offset="0.2874" style="stop-color:#CA649A"/>
			<stop  offset="0.4303" style="stop-color:#B6619C"/>
			<stop  offset="0.573" style="stop-color:#9A5D9F"/>
			<stop  offset="0.7156" style="stop-color:#7657A2"/>
			<stop  offset="0.8578" style="stop-color:#4A51A6"/>
			<stop  offset="0.9979" style="stop-color:#1749AB"/>
			<stop  offset="1" style="stop-color:#1649AB"/>
		</linearGradient>
		<polygon class="st30" points="278.6,56.9 266,69.5 278.6,82.1 291.2,69.5 		"/>
		
			<linearGradient id="SVGID_30_" gradientUnits="userSpaceOnUse" x1="1437.3214" y1="-942.7151" x2="1501.6497" y2="-1005.9249" gradientTransform="matrix(0.7071 -0.7071 0.7071 0.7071 -52.3344 1800.2231)">
			<stop  offset="0" style="stop-color:#DA6699"/>
			<stop  offset="0.1442" style="stop-color:#D66599"/>
			<stop  offset="0.2874" style="stop-color:#CA649A"/>
			<stop  offset="0.4303" style="stop-color:#B6619C"/>
			<stop  offset="0.573" style="stop-color:#9A5D9F"/>
			<stop  offset="0.7156" style="stop-color:#7657A2"/>
			<stop  offset="0.8578" style="stop-color:#4A51A6"/>
			<stop  offset="0.9979" style="stop-color:#1749AB"/>
			<stop  offset="1" style="stop-color:#1649AB"/>
		</linearGradient>
		<polygon class="st31" points="297.7,100 310.3,87 297.7,74.4 285.1,87 		"/>
		
			<linearGradient id="SVGID_31_" gradientUnits="userSpaceOnUse" x1="1450.6001" y1="-929.2014" x2="1514.9281" y2="-992.4111" gradientTransform="matrix(0.7071 -0.7071 0.7071 0.7071 -52.3344 1800.2231)">
			<stop  offset="0" style="stop-color:#DA6699"/>
			<stop  offset="0.1442" style="stop-color:#D66599"/>
			<stop  offset="0.2874" style="stop-color:#CA649A"/>
			<stop  offset="0.4303" style="stop-color:#B6619C"/>
			<stop  offset="0.573" style="stop-color:#9A5D9F"/>
			<stop  offset="0.7156" style="stop-color:#7657A2"/>
			<stop  offset="0.8578" style="stop-color:#4A51A6"/>
			<stop  offset="0.9979" style="stop-color:#1749AB"/>
			<stop  offset="1" style="stop-color:#1649AB"/>
		</linearGradient>
		<polygon class="st32" points="316.8,80.9 329.4,68.3 316.8,55.7 304.2,68.3 		"/>
		
			<linearGradient id="SVGID_32_" gradientUnits="userSpaceOnUse" x1="1463.5909" y1="-915.98" x2="1527.9192" y2="-979.1898" gradientTransform="matrix(0.7071 -0.7071 0.7071 0.7071 -52.3344 1800.2231)">
			<stop  offset="0" style="stop-color:#DA6699"/>
			<stop  offset="0.1442" style="stop-color:#D66599"/>
			<stop  offset="0.2874" style="stop-color:#CA649A"/>
			<stop  offset="0.4303" style="stop-color:#B6619C"/>
			<stop  offset="0.573" style="stop-color:#9A5D9F"/>
			<stop  offset="0.7156" style="stop-color:#7657A2"/>
			<stop  offset="0.8578" style="stop-color:#4A51A6"/>
			<stop  offset="0.9979" style="stop-color:#1749AB"/>
			<stop  offset="1" style="stop-color:#1649AB"/>
		</linearGradient>
		<polygon class="st33" points="322.9,49.2 335.5,61.8 348.1,49.2 335.5,36.6 		"/>
	</g>
	
		<rect x="194.1" y="21.6" transform="matrix(0.7071 -0.7071 0.7071 0.7071 37.8825 152.4918)" class="st1" width="17.9" height="17.9"/>
	
		<rect x="345.7" y="59.3" transform="matrix(0.7071 -0.7071 0.7071 0.7071 55.5849 270.7679)" class="st1" width="17.9" height="17.9"/>
	
		<rect x="383.5" y="59.4" transform="matrix(0.7071 -0.7071 0.7071 0.7071 66.6182 297.4891)" class="st1" width="17.9" height="17.9"/>
	
		<rect x="364.8" y="40.1" transform="matrix(0.7071 -0.7071 0.7071 0.7071 74.7848 278.6466)" class="st1" width="17.9" height="17.9"/>
	
		<rect x="345.7" y="21.6" transform="matrix(0.7071 -0.7071 0.7071 0.7071 82.3061 259.7339)" class="st1" width="17.9" height="17.9"/>
	
		<rect x="383.5" y="21.6" transform="matrix(0.7071 -0.7071 0.7071 0.7071 93.3398 286.4552)" class="st1" width="17.9" height="17.9"/>
</g>
</svg>
