<?xml version="1.0" encoding="utf-8"?>
<!-- Generator: Adobe Illustrator 22.0.1, SVG Export Plug-In . SVG Version: 6.00 Build 0)  -->
<svg version="1.1" id="Layer_1" xmlns="http://www.w3.org/2000/svg" xmlns:xlink="http://www.w3.org/1999/xlink" x="0px" y="0px"
	 viewBox="0 0 729 298.9" style="enable-background:new 0 0 729 298.9;" xml:space="preserve">
<style type="text/css">
	.st0{fill:#212121;}
	.st1{fill:#1E4DA7;}
	.st2{fill:url(#SVGID_1_);}
	.st3{fill:url(#SVGID_2_);}
	.st4{fill:url(#SVGID_3_);}
	.st5{fill:url(#SVGID_4_);}
	.st6{fill:url(#SVGID_5_);}
	.st7{fill:url(#SVGID_6_);}
	.st8{fill:url(#SVGID_7_);}
	.st9{fill:url(#SVGID_8_);}
	.st10{fill:url(#SVGID_9_);}
	.st11{fill:url(#SVGID_10_);}
	.st12{fill:url(#SVGID_11_);}
	.st13{fill:url(#SVGID_12_);}
	.st14{fill:url(#SVGID_13_);}
	.st15{fill:url(#SVGID_14_);}
	.st16{fill:url(#SVGID_15_);}
	.st17{fill:url(#SVGID_16_);}
	.st18{fill:url(#SVGID_17_);}
	.st19{fill:url(#SVGID_18_);}
	.st20{fill:url(#SVGID_19_);}
	.st21{fill:url(#SVGID_20_);}
	.st22{fill:url(#SVGID_21_);}
	.st23{fill:url(#SVGID_22_);}
	.st24{fill:url(#SVGID_23_);}
	.st25{fill:url(#SVGID_24_);}
	.st26{fill:url(#SVGID_25_);}
	.st27{fill:url(#SVGID_26_);}
	.st28{fill:url(#SVGID_27_);}
	.st29{fill:url(#SVGID_28_);}
	.st30{fill:url(#SVGID_29_);}
	.st31{fill:url(#SVGID_30_);}
	.st32{fill:url(#SVGID_31_);}
	.st33{fill:url(#SVGID_32_);}
	.st34{fill:#FAFAFA;}
	.st35{fill:url(#SVGID_33_);}
	.st36{fill:url(#SVGID_34_);}
	.st37{fill:url(#SVGID_35_);}
	.st38{fill:url(#SVGID_36_);}
	.st39{fill:url(#SVGID_37_);}
	.st40{fill:url(#SVGID_38_);}
	.st41{fill:url(#SVGID_39_);}
	.st42{fill:url(#SVGID_40_);}
	.st43{fill:url(#SVGID_41_);}
	.st44{fill:url(#SVGID_42_);}
	.st45{fill:url(#SVGID_43_);}
	.st46{fill:url(#SVGID_44_);}
	.st47{fill:url(#SVGID_45_);}
	.st48{fill:url(#SVGID_46_);}
	.st49{fill:url(#SVGID_47_);}
	.st50{fill:url(#SVGID_48_);}
	.st51{fill:url(#SVGID_49_);}
	.st52{fill:url(#SVGID_50_);}
	.st53{fill:url(#SVGID_51_);}
	.st54{fill:url(#SVGID_52_);}
	.st55{fill:url(#SVGID_53_);}
	.st56{fill:url(#SVGID_54_);}
	.st57{fill:url(#SVGID_55_);}
	.st58{fill:url(#SVGID_56_);}
	.st59{fill:url(#SVGID_57_);}
	.st60{fill:url(#SVGID_58_);}
	.st61{fill:url(#SVGID_59_);}
	.st62{fill:url(#SVGID_60_);}
	.st63{fill:url(#SVGID_61_);}
	.st64{fill:url(#SVGID_62_);}
	.st65{fill:url(#SVGID_63_);}
	.st66{fill:url(#SVGID_64_);}
</style>
<g>
	<path class="st34" d="M56.7,189.9c0,4,0,7.5,0,11.3c-16.5,0-32.8,0-49.3,0c0-3.8,0-7.4,0-11.3c5.3,0,10.3,0,15.4,0
		c3.3,0,3.3,0,3.3-3.3c0-29.9,0-59.8,0-89.8c0-3.3,0-3.3-3.3-3.4c-5,0-10.2,0-15.3,0c0-3.7,0-7.3,0-11.1c0.7,0,1.3-0.1,2.1-0.1
		c14,0,27.9,0,41.9,0c1.6,0,2.4,0.4,2.9,2c10.2,29.7,20.3,59.2,30.5,88.9c1.2,3.4,1.8,7,2.8,10.5c0.1,0.5,0.4,1.1,0.7,2
		c1.3-4.7,2.4-9.1,3.8-13.3c10-29.3,20.2-58.4,30.3-87.7c0.7-1.7,1.3-2.5,3.3-2.5c13.8,0.1,27.8,0.1,41.7,0c2.1,0,2.8,0.7,2.6,2.6
		c-0.1,2.8,0,5.5,0,8.6c-4.6,0-9,0-13.2,0c-5.7,0-5.7,0-5.7,5.7c0,29.1,0,58.3,0,87.4c0,1.1,0,2,0,3.3c4.9,0,9.5,0,14.1,0
		c4.7,0,4.7,0,4.7,4.7c0,6.7,0,6.7-6.7,6.7c-14,0-27.9,0-41.9,0c-2,0-2.9-0.4-2.8-2.6c0.1-2.9,0-5.8,0-9c5,0,9.8-0.1,14.5,0
		c2.1,0.1,2.6-0.7,2.6-2.6c0-30.6,0-61.2,0-91.6c0-0.3,0-0.5,0-0.7c-0.3-0.7-0.5-1.2-0.8-1.8c-0.5,0.4-1.3,0.8-1.6,1.5
		c-2.4,6.2-4.6,12.4-6.9,18.7c-10.4,28.9-21,57.6-31.4,86.5c-0.5,1.3-1.2,1.8-2.5,1.8c-3.3-0.1-6.6-0.1-9.9,0
		c-1.5,0-2.2-0.4-2.8-1.8c-8.3-23.2-16.7-46.4-25-69.6c-4.2-11.6-8.4-23.3-12.7-34.9c-0.3-0.7-0.9-1.3-1.5-1.8
		c-0.3,0.8-0.9,1.6-0.9,2.4c0,30.6,0,61.3-0.1,91.9c0,2.1,0.7,2.6,2.8,2.6C47,189.8,51.8,189.9,56.7,189.9z"/>
	<path class="st34" d="M417.7,188.3c5.1,0,10,0,15,0c0,3.7,0,7,0,10.5c-9.2,0-18.5,0-28.1,0c0-5.4,0-10.7,0-16
		c-0.3,0-0.4-0.1-0.7-0.1c-0.7,1.3-1.3,2.6-2,3.8c-4.7,9.1-12.8,13.2-22.5,14.2c-6.6,0.7-13.1,0.4-19.4-1.5
		c-20.4-5.7-20.8-28.6-12.8-39c5-6.5,12-9.4,19.8-10.4c11.1-1.6,22.1-1.7,33.2-1.1c0.7,0,1.5,0,2.1,0c0.3,0,0.4-0.1,1.2-0.4
		c-0.4-4.4-0.3-9-1.2-13.4c-1.2-5.3-5.3-8-10.3-9.4c-6.7-1.8-13.6-1.7-20.3,0.3c-6.5,1.8-10.2,6.3-11.2,13.1c-4.9,0-9.8,0-15,0
		c0.7-5.9,2.5-11.3,6.5-15.8c4.9-5.4,11.2-7.9,18.1-8.8c10.2-1.5,20.3-1.6,30.2,1.6c10.7,3.4,16.6,11.2,16.7,22.4
		c0.3,15.6,0.3,31.2,0.4,46.9C417.7,186.1,417.7,187.1,417.7,188.3z M390.4,159.2c0-0.1,0-0.1,0-0.3c-1.3,0-2.5,0-3.8,0
		c-6.1,0.1-12.1,0.3-17.9,2.2c-10,3.4-14,14.1-8.2,22.4c3,4.5,7.8,5.9,12.9,6.3c8.4,0.7,16.3-1.1,22.7-7.1c6.2-6.1,7-14,7.6-22
		c0-0.4-1.2-1.5-1.7-1.5C398.2,159.2,394.3,159.2,390.4,159.2z"/>
	<path class="st34" d="M192.6,160.6c-0.1,10.2,4.6,21,14.4,25.8c9.5,4.7,19.4,4.9,29.1,1.1c5.5-2.1,9.5-6.2,11.3-12
		c0.4-1.5,1.1-1.8,2.5-1.8c3.7,0.1,7.4,0,11.2,0c-2,10.3-7.5,17.5-16.2,22.4c-6.1,3.3-12.7,4.6-19.5,5c-7.8,0.4-15.4-0.1-22.8-2.8
		c-11.5-4.2-18.9-12.7-22.5-23.9c-4.4-12.9-3.6-26,2-38.5c4.5-10.3,12.5-17.1,23.3-20.3c10.4-3,21-3,31.5,0
		c10.8,3.2,18.2,10.2,22.1,20.6c3,7.8,3.8,15.8,3.6,24.4C239,160.6,215.9,160.6,192.6,160.6z M247.3,149.8c-0.5-8.3-3-15.4-9.9-20.4
		c-5.4-4-11.6-5-18.2-4.7c-9,0.4-16.3,3.8-21.5,11.3c-2.8,4.1-4.5,8.7-4.7,13.8C211.3,149.8,229.2,149.8,247.3,149.8z"/>
	<path class="st34" d="M285.5,115.4c0-5.1,0.3-10-0.1-14.9c-0.1-2.9,0.9-4.2,3.6-5c3.7-1.1,7.3-2.5,11.2-3.8c0,8,0,15.7,0,23.6
		c9.2,0,18.2,0,27.3,0c0,3.7,0,7,0,10.5c-0.9,0-1.7,0.1-2.5,0.1c-7.5,0-15,0-22.5,0c-1.6,0-2.2,0.4-2.2,2.1c0,17.4,0,34.8,0.1,52.1
		c0,5,2.8,8.4,7,9.4c4.5,1.1,8.8-0.5,10.5-4.2c0.9-1.8,1.2-4.1,1.6-6.2c0.3-1.7,0.4-3.6,0.5-5.5c3.7,0,7.3,0,10.7,0
		c1.6,14-3.7,25.8-19.5,27.2c-3,0.3-6.2,0.3-9.1-0.3c-10.2-1.8-16-8.6-16.1-18.9c-0.3-17.4-0.3-34.9-0.4-52.3c0-1.1,0-2,0-3.3
		c-5.7,0-11.1,0-16.5,0c0-3.7,0-7,0-10.7C274.4,115.4,279.8,115.4,285.5,115.4z"/>
</g>
<g>
	
		<rect x="650.3" y="267.4" transform="matrix(0.7071 -0.7071 0.7071 0.7071 -2.8662 548.3781)" class="st1" width="20.4" height="20.4"/>
	<g>
		
			<linearGradient id="SVGID_1_" gradientUnits="userSpaceOnUse" x1="-550.4417" y1="218.8108" x2="-617.5112" y2="287.1577" gradientTransform="matrix(0.7071 -0.7071 0.7071 0.7071 872.4654 -364.2194)">
			<stop  offset="0" style="stop-color:#4EE7D6"/>
			<stop  offset="1" style="stop-color:#1649AB"/>
		</linearGradient>
		<polygon class="st2" points="638.7,270.7 653.1,255.9 638.7,241.5 624.3,255.9 		"/>
		
			<linearGradient id="SVGID_2_" gradientUnits="userSpaceOnUse" x1="-565.5419" y1="203.9933" x2="-632.611" y2="272.3402" gradientTransform="matrix(0.7071 -0.7071 0.7071 0.7071 872.4654 -364.2194)">
			<stop  offset="0" style="stop-color:#4EE7D6"/>
			<stop  offset="1" style="stop-color:#1649AB"/>
		</linearGradient>
		<polygon class="st3" points="617.3,248.9 631.7,234.5 617.3,220.1 602.9,234.5 		"/>
		
			<linearGradient id="SVGID_3_" gradientUnits="userSpaceOnUse" x1="-580.9696" y1="188.8535" x2="-648.0392" y2="257.2003" gradientTransform="matrix(0.7071 -0.7071 0.7071 0.7071 872.4654 -364.2194)">
			<stop  offset="0" style="stop-color:#4EE7D6"/>
			<stop  offset="1" style="stop-color:#1649AB"/>
		</linearGradient>
		<polygon class="st4" points="595.5,227.1 609.9,212.7 595.5,198.3 581.1,212.7 		"/>
		
			<linearGradient id="SVGID_4_" gradientUnits="userSpaceOnUse" x1="-596.6826" y1="173.4348" x2="-663.7517" y2="241.7817" gradientTransform="matrix(0.7071 -0.7071 0.7071 0.7071 872.4654 -364.2194)">
			<stop  offset="0" style="stop-color:#4EE7D6"/>
			<stop  offset="1" style="stop-color:#1649AB"/>
		</linearGradient>
		<polygon class="st5" points="573.7,247.5 588.1,233.1 573.7,218.7 559.3,233.1 		"/>
		
			<linearGradient id="SVGID_5_" gradientUnits="userSpaceOnUse" x1="-643.0633" y1="127.9205" x2="-710.1329" y2="196.2674" gradientTransform="matrix(0.7071 -0.7071 0.7071 0.7071 872.4654 -364.2194)">
			<stop  offset="0" style="stop-color:#4EE7D6"/>
			<stop  offset="1" style="stop-color:#1649AB"/>
		</linearGradient>
		<polygon class="st6" points="509.1,270.7 523.5,255.9 509.1,241.5 494.3,255.9 		"/>
		
			<linearGradient id="SVGID_6_" gradientUnits="userSpaceOnUse" x1="-627.5106" y1="143.1831" x2="-694.5797" y2="211.5299" gradientTransform="matrix(0.7071 -0.7071 0.7071 0.7071 872.4654 -364.2194)">
			<stop  offset="0" style="stop-color:#4EE7D6"/>
			<stop  offset="1" style="stop-color:#1649AB"/>
		</linearGradient>
		<polygon class="st7" points="530.5,248.9 544.9,234.5 530.5,220.1 516.1,234.5 		"/>
		
			<linearGradient id="SVGID_7_" gradientUnits="userSpaceOnUse" x1="-611.7884" y1="158.6109" x2="-678.8575" y2="226.9577" gradientTransform="matrix(0.7071 -0.7071 0.7071 0.7071 872.4654 -364.2194)">
			<stop  offset="0" style="stop-color:#4EE7D6"/>
			<stop  offset="1" style="stop-color:#1649AB"/>
		</linearGradient>
		<polygon class="st8" points="552.3,198.3 537.9,212.7 552.3,227.1 566.7,212.7 		"/>
		
			<linearGradient id="SVGID_8_" gradientUnits="userSpaceOnUse" x1="-596.4008" y1="173.7106" x2="-663.4703" y2="242.0575" gradientTransform="matrix(0.7071 -0.7071 0.7071 0.7071 872.4654 -364.2194)">
			<stop  offset="0" style="stop-color:#4EE7D6"/>
			<stop  offset="1" style="stop-color:#1649AB"/>
		</linearGradient>
		<polygon class="st9" points="559.3,191.3 573.7,205.7 588.1,191.3 573.7,176.5 		"/>
	</g>
	
		<rect x="693.4" y="267.5" transform="matrix(0.7071 -0.7071 0.7071 0.7071 9.7332 578.891)" class="st1" width="20.4" height="20.4"/>
	
		<rect x="672.1" y="245.5" transform="matrix(0.7071 -0.7071 0.7071 0.7071 19.0582 557.3748)" class="st1" width="20.4" height="20.4"/>
	
		<rect x="650.4" y="224.3" transform="matrix(0.7071 -0.7071 0.7071 0.7071 27.6467 535.7787)" class="st1" width="20.4" height="20.4"/>
	
		<rect x="693.5" y="224.3" transform="matrix(0.7071 -0.7071 0.7071 0.7071 40.2461 566.2916)" class="st1" width="20.4" height="20.4"/>
	<g>
		
			<linearGradient id="SVGID_9_" gradientUnits="userSpaceOnUse" x1="-595.0066" y1="217.9324" x2="-526.6597" y2="290.1121" gradientTransform="matrix(0.7071 -0.7071 0.7071 0.7071 872.4654 -364.2194)">
			<stop  offset="0" style="stop-color:#F7BD44"/>
			<stop  offset="1" style="stop-color:#1649AB"/>
		</linearGradient>
		<polygon class="st10" points="681.9,227.1 696.7,212.7 681.9,198.3 667.5,212.7 		"/>
		
			<linearGradient id="SVGID_10_" gradientUnits="userSpaceOnUse" x1="-579.7578" y1="203.4938" x2="-511.4109" y2="275.6735" gradientTransform="matrix(0.7071 -0.7071 0.7071 0.7071 872.4654 -364.2194)">
			<stop  offset="0" style="stop-color:#F7BD44"/>
			<stop  offset="1" style="stop-color:#1649AB"/>
		</linearGradient>
		<polygon class="st11" points="660.5,205.7 674.9,191.3 660.5,176.5 646.1,191.3 		"/>
		
			<linearGradient id="SVGID_11_" gradientUnits="userSpaceOnUse" x1="-564.5185" y1="189.0638" x2="-496.1716" y2="261.243" gradientTransform="matrix(0.7071 -0.7071 0.7071 0.7071 872.4654 -364.2194)">
			<stop  offset="0" style="stop-color:#F7BD44"/>
			<stop  offset="1" style="stop-color:#1649AB"/>
		</linearGradient>
		<polygon class="st12" points="638.7,183.9 653.1,169.5 638.7,155.1 624.3,169.5 		"/>
		
			<linearGradient id="SVGID_12_" gradientUnits="userSpaceOnUse" x1="-548.2744" y1="173.6819" x2="-479.9275" y2="245.8611" gradientTransform="matrix(0.7071 -0.7071 0.7071 0.7071 872.4654 -364.2194)">
			<stop  offset="0" style="stop-color:#F7BD44"/>
			<stop  offset="1" style="stop-color:#1649AB"/>
		</linearGradient>
		<polygon class="st13" points="659.1,162.1 673.5,147.7 659.1,133.3 644.7,147.7 		"/>
		
			<linearGradient id="SVGID_13_" gradientUnits="userSpaceOnUse" x1="-549.1016" y1="174.465" x2="-480.7548" y2="246.6447" gradientTransform="matrix(0.7071 -0.7071 0.7071 0.7071 872.4654 -364.2194)">
			<stop  offset="0" style="stop-color:#F7BD44"/>
			<stop  offset="1" style="stop-color:#1649AB"/>
		</linearGradient>
		<polygon class="st14" points="617.3,162.1 631.7,147.7 617.3,133.3 602.9,147.7 		"/>
		
			<linearGradient id="SVGID_14_" gradientUnits="userSpaceOnUse" x1="-533.1757" y1="159.3851" x2="-464.8289" y2="231.5648" gradientTransform="matrix(0.7071 -0.7071 0.7071 0.7071 872.4654 -364.2194)">
			<stop  offset="0" style="stop-color:#F7BD44"/>
			<stop  offset="1" style="stop-color:#1649AB"/>
		</linearGradient>
		<polygon class="st15" points="638.7,140.7 653.1,126.3 638.7,111.9 624.3,126.3 		"/>
		
			<linearGradient id="SVGID_15_" gradientUnits="userSpaceOnUse" x1="-516.9042" y1="143.9771" x2="-448.5573" y2="216.1563" gradientTransform="matrix(0.7071 -0.7071 0.7071 0.7071 872.4654 -364.2194)">
			<stop  offset="0" style="stop-color:#F7BD44"/>
			<stop  offset="1" style="stop-color:#1649AB"/>
		</linearGradient>
		<polygon class="st16" points="660.5,118.9 674.9,104.5 660.5,90.1 646.1,104.5 		"/>
		
			<linearGradient id="SVGID_16_" gradientUnits="userSpaceOnUse" x1="-500.8099" y1="128.7376" x2="-432.463" y2="200.9169" gradientTransform="matrix(0.7071 -0.7071 0.7071 0.7071 872.4654 -364.2194)">
			<stop  offset="0" style="stop-color:#F7BD44"/>
			<stop  offset="1" style="stop-color:#1649AB"/>
		</linearGradient>
		<polygon class="st17" points="667.5,82.7 681.9,97.5 696.7,82.7 681.9,68.3 		"/>
	</g>
	
		<rect x="434" y="267.4" transform="matrix(0.7071 -0.7071 0.7071 0.7071 -66.1932 395.4046)" class="st1" width="20.4" height="20.4"/>
	
		<rect x="477.1" y="267.4" transform="matrix(0.7071 -0.7071 0.7071 0.7071 -53.5935 425.9174)" class="st1" width="20.4" height="20.4"/>
	
		<rect x="455.2" y="245.6" transform="matrix(0.7071 -0.7071 0.7071 0.7071 -44.597 403.9934)" class="st1" width="20.4" height="20.4"/>
	
		<rect x="434" y="224.3" transform="matrix(0.7071 -0.7071 0.7071 0.7071 -35.6801 382.8048)" class="st1" width="20.4" height="20.4"/>
	
		<rect x="477.2" y="224.3" transform="matrix(0.7071 -0.7071 0.7071 0.7071 -23.0806 413.3181)" class="st1" width="20.4" height="20.4"/>
	<g>
		
			<linearGradient id="SVGID_17_" gradientUnits="userSpaceOnUse" x1="-643.4434" y1="171.0282" x2="-714.9842" y2="101.404" gradientTransform="matrix(0.7071 -0.7071 0.7071 0.7071 872.4654 -364.2194)">
			<stop  offset="0" style="stop-color:#D775DE"/>
			<stop  offset="1" style="stop-color:#1649AB"/>
		</linearGradient>
		<polygon class="st18" points="465.5,227.1 479.9,212.7 465.5,198.3 451.1,212.7 		"/>
		
			<linearGradient id="SVGID_18_" gradientUnits="userSpaceOnUse" x1="-628.5932" y1="155.7699" x2="-700.134" y2="86.1453" gradientTransform="matrix(0.7071 -0.7071 0.7071 0.7071 872.4654 -364.2194)">
			<stop  offset="0" style="stop-color:#D775DE"/>
			<stop  offset="1" style="stop-color:#1649AB"/>
		</linearGradient>
		<polygon class="st19" points="487.3,205.7 501.7,191.3 487.3,176.5 472.9,191.3 		"/>
		
			<linearGradient id="SVGID_19_" gradientUnits="userSpaceOnUse" x1="-613.7435" y1="140.5106" x2="-685.2842" y2="70.8865" gradientTransform="matrix(0.7071 -0.7071 0.7071 0.7071 872.4654 -364.2194)">
			<stop  offset="0" style="stop-color:#D775DE"/>
			<stop  offset="1" style="stop-color:#1649AB"/>
		</linearGradient>
		<polygon class="st20" points="509.1,183.9 523.5,169.5 509.1,155.1 494.3,169.5 		"/>
		
			<linearGradient id="SVGID_20_" gradientUnits="userSpaceOnUse" x1="-598.7269" y1="125.0813" x2="-670.2676" y2="55.4571" gradientTransform="matrix(0.7071 -0.7071 0.7071 0.7071 872.4654 -364.2194)">
			<stop  offset="0" style="stop-color:#D775DE"/>
			<stop  offset="1" style="stop-color:#1649AB"/>
		</linearGradient>
		<polygon class="st21" points="530.5,162.1 544.9,147.7 530.5,133.3 516.1,147.7 		"/>
		
			<linearGradient id="SVGID_21_" gradientUnits="userSpaceOnUse" x1="-598.3183" y1="124.6611" x2="-669.8586" y2="55.0369" gradientTransform="matrix(0.7071 -0.7071 0.7071 0.7071 872.4654 -364.2194)">
			<stop  offset="0" style="stop-color:#D775DE"/>
			<stop  offset="1" style="stop-color:#1649AB"/>
		</linearGradient>
		<polygon class="st22" points="487.3,162.1 501.7,147.7 487.3,133.3 472.9,147.7 		"/>
		
			<linearGradient id="SVGID_22_" gradientUnits="userSpaceOnUse" x1="-583.6301" y1="109.5686" x2="-655.171" y2="39.9444" gradientTransform="matrix(0.7071 -0.7071 0.7071 0.7071 872.4654 -364.2194)">
			<stop  offset="0" style="stop-color:#D775DE"/>
			<stop  offset="1" style="stop-color:#1649AB"/>
		</linearGradient>
		<polygon class="st23" points="509.1,140.7 523.5,126.3 509.1,111.9 494.3,126.3 		"/>
		
			<linearGradient id="SVGID_23_" gradientUnits="userSpaceOnUse" x1="-568.2049" y1="93.7189" x2="-639.7457" y2="24.0947" gradientTransform="matrix(0.7071 -0.7071 0.7071 0.7071 872.4654 -364.2194)">
			<stop  offset="0" style="stop-color:#D775DE"/>
			<stop  offset="1" style="stop-color:#1649AB"/>
		</linearGradient>
		<polygon class="st24" points="487.3,118.9 501.7,104.5 487.3,90.1 472.9,104.5 		"/>
		
			<linearGradient id="SVGID_24_" gradientUnits="userSpaceOnUse" x1="-552.9418" y1="78.0357" x2="-624.4822" y2="8.4115" gradientTransform="matrix(0.7071 -0.7071 0.7071 0.7071 872.4654 -364.2194)">
			<stop  offset="0" style="stop-color:#D775DE"/>
			<stop  offset="1" style="stop-color:#1649AB"/>
		</linearGradient>
		<polygon class="st25" points="451.1,82.7 465.5,97.5 479.9,82.7 465.5,68.3 		"/>
	</g>
	
		<rect x="434" y="51.1" transform="matrix(0.7071 -0.7071 0.7071 0.7071 86.7807 332.0778)" class="st1" width="20.4" height="20.4"/>
	
		<rect x="477.2" y="51.1" transform="matrix(0.7071 -0.7071 0.7071 0.7071 99.3798 362.5909)" class="st1" width="20.4" height="20.4"/>
	
		<rect x="455.2" y="29.3" transform="matrix(0.7071 -0.7071 0.7071 0.7071 108.3765 340.6664)" class="st1" width="20.4" height="20.4"/>
	
		<rect x="434.1" y="7.9" transform="matrix(0.7071 -0.7071 0.7071 0.7071 117.2935 319.4781)" class="st1" width="20.4" height="20.4"/>
	<g>
		
			<linearGradient id="SVGID_25_" gradientUnits="userSpaceOnUse" x1="-566.8062" y1="113.6329" x2="-493.3492" y2="41.4537" gradientTransform="matrix(0.7071 -0.7071 0.7071 0.7071 872.4654 -364.2194)">
			<stop  offset="0" style="stop-color:#DA6699"/>
			<stop  offset="0.1442" style="stop-color:#D66599"/>
			<stop  offset="0.2874" style="stop-color:#CA649A"/>
			<stop  offset="0.4303" style="stop-color:#B6619C"/>
			<stop  offset="0.573" style="stop-color:#9A5D9F"/>
			<stop  offset="0.7156" style="stop-color:#7657A2"/>
			<stop  offset="0.8578" style="stop-color:#4A51A6"/>
			<stop  offset="0.9979" style="stop-color:#1749AB"/>
			<stop  offset="1" style="stop-color:#1649AB"/>
		</linearGradient>
		<polygon class="st26" points="552.3,97.5 566.7,82.7 552.3,68.3 537.9,82.7 		"/>
		
			<linearGradient id="SVGID_26_" gradientUnits="userSpaceOnUse" x1="-582.2317" y1="97.9344" x2="-508.7747" y2="25.7547" gradientTransform="matrix(0.7071 -0.7071 0.7071 0.7071 872.4654 -364.2194)">
			<stop  offset="0" style="stop-color:#DA6699"/>
			<stop  offset="0.1442" style="stop-color:#D66599"/>
			<stop  offset="0.2874" style="stop-color:#CA649A"/>
			<stop  offset="0.4303" style="stop-color:#B6619C"/>
			<stop  offset="0.573" style="stop-color:#9A5D9F"/>
			<stop  offset="0.7156" style="stop-color:#7657A2"/>
			<stop  offset="0.8578" style="stop-color:#4A51A6"/>
			<stop  offset="0.9979" style="stop-color:#1749AB"/>
			<stop  offset="1" style="stop-color:#1649AB"/>
		</linearGradient>
		<polygon class="st27" points="530.5,75.7 544.9,61.3 530.5,46.9 516.1,61.3 		"/>
		
			<linearGradient id="SVGID_27_" gradientUnits="userSpaceOnUse" x1="-597.4976" y1="82.3983" x2="-524.0406" y2="10.2191" gradientTransform="matrix(0.7071 -0.7071 0.7071 0.7071 872.4654 -364.2194)">
			<stop  offset="0" style="stop-color:#DA6699"/>
			<stop  offset="0.1442" style="stop-color:#D66599"/>
			<stop  offset="0.2874" style="stop-color:#CA649A"/>
			<stop  offset="0.4303" style="stop-color:#B6619C"/>
			<stop  offset="0.573" style="stop-color:#9A5D9F"/>
			<stop  offset="0.7156" style="stop-color:#7657A2"/>
			<stop  offset="0.8578" style="stop-color:#4A51A6"/>
			<stop  offset="0.9979" style="stop-color:#1749AB"/>
			<stop  offset="1" style="stop-color:#1649AB"/>
		</linearGradient>
		<polygon class="st28" points="509.1,53.9 523.5,39.5 509.1,25.1 494.3,39.5 		"/>
		
			<linearGradient id="SVGID_28_" gradientUnits="userSpaceOnUse" x1="-551.7032" y1="129.0034" x2="-478.2462" y2="56.8237" gradientTransform="matrix(0.7071 -0.7071 0.7071 0.7071 872.4654 -364.2194)">
			<stop  offset="0" style="stop-color:#DA6699"/>
			<stop  offset="0.1442" style="stop-color:#D66599"/>
			<stop  offset="0.2874" style="stop-color:#CA649A"/>
			<stop  offset="0.4303" style="stop-color:#B6619C"/>
			<stop  offset="0.573" style="stop-color:#9A5D9F"/>
			<stop  offset="0.7156" style="stop-color:#7657A2"/>
			<stop  offset="0.8578" style="stop-color:#4A51A6"/>
			<stop  offset="0.9979" style="stop-color:#1749AB"/>
			<stop  offset="1" style="stop-color:#1649AB"/>
		</linearGradient>
		<polygon class="st29" points="573.7,118.9 588.1,104.5 573.7,90.1 559.3,104.5 		"/>
		
			<linearGradient id="SVGID_29_" gradientUnits="userSpaceOnUse" x1="-551.9601" y1="128.7418" x2="-478.5031" y2="56.5626" gradientTransform="matrix(0.7071 -0.7071 0.7071 0.7071 872.4654 -364.2194)">
			<stop  offset="0" style="stop-color:#DA6699"/>
			<stop  offset="0.1442" style="stop-color:#D66599"/>
			<stop  offset="0.2874" style="stop-color:#CA649A"/>
			<stop  offset="0.4303" style="stop-color:#B6619C"/>
			<stop  offset="0.573" style="stop-color:#9A5D9F"/>
			<stop  offset="0.7156" style="stop-color:#7657A2"/>
			<stop  offset="0.8578" style="stop-color:#4A51A6"/>
			<stop  offset="0.9979" style="stop-color:#1749AB"/>
			<stop  offset="1" style="stop-color:#1649AB"/>
		</linearGradient>
		<polygon class="st30" points="573.7,48.3 559.3,62.7 573.7,77.1 588.1,62.7 		"/>
		
			<linearGradient id="SVGID_30_" gradientUnits="userSpaceOnUse" x1="-536.5428" y1="144.4316" x2="-463.0858" y2="72.252" gradientTransform="matrix(0.7071 -0.7071 0.7071 0.7071 872.4654 -364.2194)">
			<stop  offset="0" style="stop-color:#DA6699"/>
			<stop  offset="0.1442" style="stop-color:#D66599"/>
			<stop  offset="0.2874" style="stop-color:#CA649A"/>
			<stop  offset="0.4303" style="stop-color:#B6619C"/>
			<stop  offset="0.573" style="stop-color:#9A5D9F"/>
			<stop  offset="0.7156" style="stop-color:#7657A2"/>
			<stop  offset="0.8578" style="stop-color:#4A51A6"/>
			<stop  offset="0.9979" style="stop-color:#1749AB"/>
			<stop  offset="1" style="stop-color:#1649AB"/>
		</linearGradient>
		<polygon class="st31" points="595.5,97.5 609.9,82.7 595.5,68.3 581.1,82.7 		"/>
		
			<linearGradient id="SVGID_31_" gradientUnits="userSpaceOnUse" x1="-521.3797" y1="159.8631" x2="-447.9232" y2="87.6834" gradientTransform="matrix(0.7071 -0.7071 0.7071 0.7071 872.4654 -364.2194)">
			<stop  offset="0" style="stop-color:#DA6699"/>
			<stop  offset="0.1442" style="stop-color:#D66599"/>
			<stop  offset="0.2874" style="stop-color:#CA649A"/>
			<stop  offset="0.4303" style="stop-color:#B6619C"/>
			<stop  offset="0.573" style="stop-color:#9A5D9F"/>
			<stop  offset="0.7156" style="stop-color:#7657A2"/>
			<stop  offset="0.8578" style="stop-color:#4A51A6"/>
			<stop  offset="0.9979" style="stop-color:#1749AB"/>
			<stop  offset="1" style="stop-color:#1649AB"/>
		</linearGradient>
		<polygon class="st32" points="617.3,75.7 631.7,61.3 617.3,46.9 602.9,61.3 		"/>
		
			<linearGradient id="SVGID_32_" gradientUnits="userSpaceOnUse" x1="-506.5454" y1="174.9606" x2="-433.0885" y2="102.781" gradientTransform="matrix(0.7071 -0.7071 0.7071 0.7071 872.4654 -364.2194)">
			<stop  offset="0" style="stop-color:#DA6699"/>
			<stop  offset="0.1442" style="stop-color:#D66599"/>
			<stop  offset="0.2874" style="stop-color:#CA649A"/>
			<stop  offset="0.4303" style="stop-color:#B6619C"/>
			<stop  offset="0.573" style="stop-color:#9A5D9F"/>
			<stop  offset="0.7156" style="stop-color:#7657A2"/>
			<stop  offset="0.8578" style="stop-color:#4A51A6"/>
			<stop  offset="0.9979" style="stop-color:#1749AB"/>
			<stop  offset="1" style="stop-color:#1649AB"/>
		</linearGradient>
		<polygon class="st33" points="624.3,39.5 638.7,53.9 653.1,39.5 638.7,25.1 		"/>
	</g>
	
		<rect x="477.2" y="8" transform="matrix(0.7071 -0.7071 0.7071 0.7071 129.8929 349.9911)" class="st1" width="20.4" height="20.4"/>
	
		<rect x="650.3" y="51.1" transform="matrix(0.7071 -0.7071 0.7071 0.7071 150.1074 485.0514)" class="st1" width="20.4" height="20.4"/>
	
		<rect x="693.5" y="51.2" transform="matrix(0.7071 -0.7071 0.7071 0.7071 162.7064 515.5645)" class="st1" width="20.4" height="20.4"/>
	
		<rect x="672.2" y="29.1" transform="matrix(0.7071 -0.7071 0.7071 0.7071 172.0318 494.0481)" class="st1" width="20.4" height="20.4"/>
	
		<rect x="650.4" y="8" transform="matrix(0.7071 -0.7071 0.7071 0.7071 180.6205 472.4516)" class="st1" width="20.4" height="20.4"/>
	<rect x="693.5" y="8" transform="matrix(0.7071 -0.7071 0.7071 0.7071 193.22 502.9648)" class="st1" width="20.4" height="20.4"/>
</g>
</svg>
